<svg xmlns="http://www.w3.org/2000/svg" xmlns:xlink="http://www.w3.org/1999/xlink" xmlns:fi="http://pattern.flaticon.com/" x="0" y="0" width="800" height="800" viewBox="0 0 2153.846153846154 2153.846153846154"><rect x="0px" y="0px" width="100%" height="100%" opacity="1" fill="#ffffff"/><defs><g transform="matrix(0.8733582496643066 0 0 0.8733582496643066 106.05539392271396 148.0525360107422)" id="L1_14"><path d="M24.6973553,14.6655998c-1.6688995,0-3.0263004,1.3574009-3.0263004,3.0263004   c0,1.6690006,1.3574009,3.0268993,3.0263004,3.0268993c1.6690006,0,3.027401-1.3578987,3.027401-3.0268993   C27.7247562,16.0230007,26.3663559,14.6655998,24.6973553,14.6655998z M24.6973553,19.7187996   c-1.1171989,0-2.0263004-0.9091988-2.0263004-2.0268993c0-1.1172009,0.9091015-2.0263004,2.0263004-2.0263004   c1.1182003,0,2.027401,0.9090996,2.027401,2.0263004C26.7247562,18.8096008,25.8155556,19.7187996,24.6973553,19.7187996z"/><path d="M43.6426544,21.4741993c-0.2919998-0.8149986-0.743103-1.5571995-1.342701-2.2066002   c-0.1504021-0.1620998-0.3867989-0.2118988-0.5908966-0.1259995l-1.2587013,0.5386009   c-0.4239006-0.3241997-0.902401-0.586401-1.4112015-0.7728996l-0.1317978-1.2671013   c-0.0235023-0.2304993-0.1963005-0.4179993-0.4238014-0.4604988c-0.8848-0.1660004-1.7812996-0.1660004-2.6660995,0   c-0.2275009,0.0424995-0.4002991,0.2294998-0.4238014,0.4599991l-0.1327972,1.2670994   c-0.5078011,0.1865005-0.9873009,0.4492016-1.4111023,0.7734013l-0.6721992-0.2881012   c0.1448021-0.0726986,0.2525024-0.2094002,0.2775993-0.3773994c0.1299019-0.8775005,0.1299019-1.7675991,0-2.6450005   c-0.035099-0.2343998-0.2274971-0.4140997-0.4637985-0.4325991l-1.8544998-0.1456003   c-0.1436005-0.4951-0.339901-0.9692001-0.5869007-1.4168997l1.2089005-1.4156008   c0.1534004-0.1801996,0.1630993-0.4432993,0.0214996-0.6337996c-0.5282993-0.7124004-1.1571999-1.3413-1.8691006-1.8696003   c-0.1924-0.1415997-0.4530983-0.1328001-0.6348,0.0220003l-1.414999,1.2089996   c-0.4482994-0.2480993-0.9229012-0.4448996-1.4160004-0.5873995l-0.1464996-1.8544998   c-0.0186005-0.2364006-0.1982994-0.4287004-0.4326-0.4634008c-0.8770008-0.1317997-1.767601-0.1317997-2.6445999,0   c-0.2343006,0.0347004-0.4139996,0.2270002-0.4326,0.4634008l-0.1464996,1.8544998   c-0.4931011,0.1424999-0.967701,0.3393002-1.4160004,0.5873995l-1.4150009-1.2089996   c-0.1816998-0.1538-0.4433994-0.1626005-0.6348-0.0220003c-0.7108994,0.5274-1.3397999,1.1563005-1.8701,1.8691006   c-0.1415997,0.191-0.1317997,0.4540997,0.022501,0.6342993l1.2089005,1.4156008   c-0.2480011,0.4491997-0.4443016,0.9232998-0.5869007,1.4168997l-1.8544998,0.1456003   c-0.2363005,0.0184994-0.4287004,0.1976995-0.4638004,0.4320993c-0.1318998,0.8779011-0.1318998,1.7679996,0,2.6459999   c0.0351,0.2343998,0.2275,0.4136009,0.4638004,0.4321003l1.8544998,0.1455002   c0.1425991,0.4937,0.3388996,0.9678001,0.5869007,1.4169998l-1.2089005,1.4155006   c-0.1543007,0.1801987-0.1641006,0.4438992-0.022501,0.6343002c0.5303001,0.7128983,1.1592007,1.3417988,1.8701,1.8695984   c0.1904011,0.1407013,0.4540997,0.1319008,0.6348-0.0218983l1.4150009-1.2095013   c0.4482994,0.2480011,0.9228992,0.4447994,1.4160004,0.5874004l0.1464996,1.8544998   c0.0186005,0.2362995,0.1982994,0.4286995,0.4326,0.4633999c0.4384995,0.0659008,0.8808994,0.0986004,1.3223,0.0986004   s0.8838005-0.0326996,1.3223-0.0986004c0.2343006-0.0347004,0.4139996-0.2271004,0.4326-0.4633999l0.1464996-1.8544998   c0.4930992-0.142601,0.967701-0.3393993,1.4160004-0.5874004l1.414999,1.2095013   c0.0825005,0.0704994,0.1844006,0.1019993,0.2866001,0.1114998c-0.7607002-0.1571999-1.5353985-0.1926003-2.3071003-0.0881004   c-0.2128983,0.0287991-0.3817997,0.1924-0.4169998,0.4037991l-0.2118988,1.2821999   c-0.517601,0.1582012-1.0116997,0.397501-1.4531002,0.703701l-1.210001-0.6133003   c-0.1854992-0.0928001-0.4110985-0.0596008-0.5614986,0.0858994c-0.6211014,0.6069012-1.1074009,1.3179016-1.4442997,2.1133003   c-0.0860004,0.2026005-0.0244007,0.4379997,0.1483994,0.5737l1.044899,0.8178997   c-0.112299,0.5044003-0.1444988,1.0264015-0.0936985,1.5391006l-1.1406002,0.6942997   c-0.1875,0.1142006-0.2754002,0.3393021-0.214901,0.5503006c0.2354012,0.8256989,0.6317997,1.5873985,1.1767998,2.2640991   c0.1317997,0.1636009,0.3515015,0.2222023,0.5488014,0.1519012l1.2763996-0.471199   c0.4004002,0.3535004,0.8603001,0.6459999,1.3535004,0.8622971l0.0536995,1.2944031   c0.0088005,0.2158966,0.1592007,0.4003983,0.3682003,0.4526978c0.5555992,0.1395988,1.1210003,0.2094994,1.6893997,0.2094994   c0.3046989,0,0.6112995-0.0200996,0.9169998-0.0606003c0.2129002-0.0282974,0.3827991-0.1918983,0.4179993-0.4037971   l0.2109013-1.2821999c0.5185986-0.1587029,1.0116997-0.3975029,1.4531002-0.7036018l1.2099991,0.6132011   c0.1865005,0.0932999,0.4110985,0.0606003,0.5615005-0.0858994c0.6211014-0.6069031,1.107399-1.3184013,1.4442978-2.1138   c0.0860023-0.2026024,0.0245018-0.4379997-0.1483994-0.5737l-1.044899-0.8174019   c0.1142006-0.5077991,0.1455002-1.0233994,0.0937004-1.5389996l1.1407013-0.6944008   c0.1875-0.1141987,0.2753983-0.3392982,0.214798-0.5502987c-0.2123985-0.7446003-0.5612984-1.4323006-1.0237007-2.0547009   l0.2346001-0.1005001c0.4239006,0.3241997,0.902401,0.5869007,1.410202,0.773901l0.1327972,1.2660999   c0.0235023,0.2299995,0.1963005,0.4169998,0.4229012,0.4599991c0.4422989,0.0834999,0.8885994,0.1254005,1.3339005,0.1254005   c0.4454002,0,0.8917007-0.0419006,1.3339996-0.1254005c0.2266006-0.0429993,0.3993988-0.2299995,0.4229012-0.4604988   l0.1317978-1.2656002c0.5078011-0.1870003,0.9873009-0.4497013,1.4112015-0.773901l1.2587013,0.5384998   c0.2040977,0.0869007,0.4404945,0.0370998,0.5908966-0.1259003c0.5995979-0.6484985,1.0507011-1.3911991,1.342701-2.2070999   c0.0800972-0.2245998-0.0018997-0.4750996-0.1982002-0.6093998l-1.0946999-0.7440987   c0.0790977-0.4966011,0.0790977-1.0059013,0-1.5029011l1.0946999-0.7441998   C43.6417542,21.9493008,43.7227516,21.6987991,43.6426544,21.4741993z M30.7515564,21.2458992L30.5499554,21.0098   c0.2469997-0.4477005,0.4433002-0.9223995,0.5869007-1.4169998l0.6345005-0.0498009   C31.3416557,20.0596008,31.0001564,20.6299,30.7515564,21.2458992z M28.2471561,22.6875   c-0.1689014-0.1434994-0.4131012-0.1606007-0.6014996-0.0443993c-0.5528011,0.3466988-1.1563015,0.5971985-1.7940006,0.7440987   c-0.2168007,0.0499001-0.3759995,0.2343998-0.3934994,0.4561005l-0.1416016,1.8022003   c-0.5136986,0.0499001-1.0312996,0.0499001-1.5450001,0l-0.1415997-1.8022003   c-0.0174999-0.2217007-0.1767006-0.4062004-0.3934994-0.4561005c-0.637701-0.1469002-1.2411995-0.3973999-1.7940006-0.7440987   c-0.1884003-0.1172009-0.4326-0.1001015-0.6014996,0.0443993l-1.375,1.1748009   c-0.397501-0.3276005-0.7637005-0.6933002-1.0928001-1.0922012l1.1748009-1.375   c0.1444988-0.1689987,0.1630993-0.4125996,0.044899-0.601099c-0.3465996-0.5531998-0.5965996-1.1568012-0.7441006-1.7944012   c-0.049799-0.2167988-0.2343998-0.3759995-0.4560986-0.3935986l-1.8017006-0.1416016   c-0.0508003-0.5136986-0.0508003-1.0307999,0-1.5443993l1.8017006-0.1415997   c0.2216988-0.017601,0.4062996-0.1767998,0.4560986-0.3936005c0.147501-0.6377001,0.397501-1.2411995,0.7441006-1.7944002   c0.1182003-0.1884995,0.0995998-0.4321995-0.044899-0.6015997l-1.1748009-1.3745003   c0.3290997-0.3989,0.6942997-0.7645998,1.0928001-1.0922995l1.375,1.1747999   c0.169899,0.1444998,0.414999,0.1616001,0.6014996,0.0444994c0.5528011-0.3466997,1.1562996-0.5971994,1.7940006-0.7441998   c0.2167988-0.0497999,0.3759995-0.2343998,0.3934994-0.4560003L23.7715549,9.7388   c0.5137005-0.0497999,1.0313015-0.0497999,1.5450001,0l0.1416016,1.8022995   c0.0174999,0.2216005,0.1766987,0.4062004,0.3934994,0.4560003c0.6376991,0.1470003,1.2411995,0.3975,1.7940006,0.7441998   c0.1875,0.1162004,0.4315987,0.0991001,0.6014996-0.0444994l1.375-1.1747999   c0.3985004,0.3280993,0.7636986,0.6933994,1.0917988,1.0917997l-1.174799,1.3754997   c-0.1434994,0.1689005-0.1620998,0.4126005-0.0438995,0.6011c0.3456993,0.5508003,0.5956993,1.1548004,0.7440987,1.7953997   c0.0498009,0.216301,0.2343998,0.375,0.4561005,0.392601l1.8016987,0.1415997c0.0498009,0.5135994,0.0498009,1.0307007,0,1.5443993   l-1.8016987,0.1416016c-0.2217007,0.0175991-0.4062996,0.1763-0.4561005,0.3925991   c-0.1483994,0.6406002-0.3983994,1.2446003-0.7440987,1.7954006c-0.1182003,0.1884995-0.0995998,0.4321003,0.0438995,0.601099   l1.174799,1.375c-0.3281002,0.398901-0.6932983,0.7646008-1.0917988,1.092701L28.2471561,22.6875z M29.9112549,24.9291992   c0.7119007-0.5282993,1.3408012-1.1571999,1.8691006-1.8701c0.0633011-0.0851994,0.0860004-0.1864986,0.0893993-0.2867985   l0.081501,0.0553989c-0.0790997,0.4969997-0.0790997,1.0063,0,1.5029011l-1.0956993,0.7440987   c-0.1982002,0.1343002-0.2793007,0.3848-0.1992016,0.6099014c0.2554016,0.7128983,0.6394005,1.3642998,1.1296005,1.9491997   l-0.1480999,0.0546989c-0.4013996-0.3535004-0.8614006-0.6459999-1.3535995-0.8617992l-0.0536995-1.2943993   c-0.0088005-0.2159004-0.1592007-0.3999004-0.3681011-0.4527016c-0.0872002-0.0219002-0.1753006-0.0345993-0.2630005-0.0534   C29.7083549,25.0279007,29.8184547,24.9978008,29.9112549,24.9291992z M32.5049553,30.2110004   c-0.169899,0.1040001-0.2597008,0.301199-0.2265015,0.4979992c0.0996017,0.5888996,0.0635033,1.1797009-0.107399,1.7559013   c-0.0576973,0.1918983,0.0087013,0.3993988,0.1660004,0.5228996l0.9930992,0.7769012   c-0.2215996,0.4389992-0.5,0.8446999-0.8319969,1.2108994l-1.1572018-0.5864029   c-0.1718998-0.0858994-0.3740005-0.0663986-0.5235004,0.0527c-0.4834003,0.3824005-1.0370998,0.6494026-1.6455002,0.7945023   c-0.1903992,0.0453987-0.3358994,0.2006989-0.3680992,0.3945007l-0.2012005,1.2235985   c-0.5126991,0.0367012-1.0263996,0.0088005-1.5321999-0.0868988l-0.0508003-1.2344017   c-0.0088005-0.1977005-0.1348-0.3705978-0.3213005-0.4384003c-0.5770988-0.2094994-1.107399-0.5463982-1.5351982-0.9741974   c-0.1337013-0.134201-0.3330002-0.1772003-0.5136013-0.1132011l-1.219799,0.4501991   c-0.2851009-0.4019012-0.5116997-0.8349991-0.6767006-1.293499l1.0839996-0.660202   c0.1709003-0.1040001,0.2607002-0.3016968,0.2264996-0.4989967c-0.1005993-0.5879021-0.0643997-1.1782017,0.1075001-1.7544022   c0.0576-0.1919003-0.0078983-0.3999004-0.1660995-0.5233994l-0.9930992-0.7769012   c0.2216988-0.4389,0.5-0.8441982,0.8319988-1.2103996l1.1571999,0.586401   c0.1700001,0.0844994,0.3731003,0.0649986,0.5235004-0.0527c0.4764996-0.3770008,1.0459003-0.6519012,1.6445007-0.7945004   c0.1914005-0.0449009,0.3368988-0.2005997,0.3691006-0.3945007l0.2021999-1.2241001   c0.5155983-0.0375996,1.0243988-0.0082989,1.5311985,0.0869007l0.0508003,1.2348995   c0.0088005,0.1977005,0.1348,0.3711014,0.3213005,0.4384003c0.5762005,0.2084999,1.1065006,0.5454998,1.5352001,0.9742012   c0.1346989,0.1346989,0.3368988,0.1791992,0.5135994,0.1131992l1.2206993-0.4505997   c0.2842026,0.4007988,0.5107994,0.8338985,0.6758003,1.2938995L32.5049553,30.2110004z M41.4737549,22.1562996   c-0.1796989,0.1224995-0.264698,0.3432999-0.2138977,0.5552006c0.1357994,0.5678005,0.1357994,1.1679001,0,1.7353001   c-0.0508003,0.2113991,0.0341988,0.4326,0.2138977,0.5552006l1.0331993,0.7020988   c-0.190403,0.4288006-0.4365005,0.830101-0.7372971,1.1996994l-1.1991997-0.5130997   c-0.1846008-0.0790997-0.3975029-0.0444984-0.5508003,0.0874004c-0.4580002,0.4004002-1.0156021,0.7049999-1.6142998,0.8813   c-0.2031021,0.0601006-0.3506012,0.2373009-0.3720016,0.4482994l-0.1259995,1.201601   c-0.5039024,0.0625-1.0107994,0.0625-1.5147018,0l-0.1259003-1.2021008   c-0.0214996-0.2109985-0.1689987-0.3876991-0.372097-0.4477997c-0.5986023-0.1763-1.1562996-0.4808998-1.6142998-0.8813   c-0.1533012-0.1327991-0.3652-0.1665001-0.5507011-0.0874004l-1.1982994,0.5136013   c-0.3008003-0.3691006-0.547802-0.7709999-0.7392006-1.200201l1.0340996-0.7020988   c0.1806984-0.1221008,0.2657013-0.3432999,0.214901-0.5552006c-0.1357994-0.5674-0.1357994-1.1674995,0-1.7353001   c0.0508003-0.2119007-0.0342026-0.4330997-0.214901-0.5552006l-1.0340996-0.7021999   c0.1913986-0.4286995,0.4393997-0.8299999,0.7392006-1.1991997l1.1982994,0.5132008   c0.1865005,0.0800991,0.4002991,0.0443993,0.5507011-0.0874004c0.4580002-0.4004002,1.0156975-0.705101,1.6132965-0.8803997   c0.2041016-0.0594997,0.3516006-0.2368011,0.3731003-0.4477005l0.1259003-1.2031002   c0.5039024-0.0615997,1.0107994-0.0615997,1.5147018,0l0.1259995,1.2026005   c0.0214005,0.2113991,0.1688995,0.3887005,0.3730011,0.4482002c0.5976982,0.1752987,1.1553001,0.4799995,1.6133003,0.8803997   c0.1503983,0.1317997,0.3641968,0.1674995,0.5508003,0.0874004L41.7696571,20.2549   c0.2997971,0.3701,0.5468941,0.7714996,0.7372971,1.1991997L41.4737549,22.1562996z"/><path d="M58.0342522,33.1416016c-0.0185013-0.2275009-0.1161957-0.4419022-0.2733994-0.6069031   c-0.0360985-0.0375977-3.4618988-3.6254978-5.5917969-6.6713982c1.0966988-3.9526005,0.6405983-7.5419998,0.2304955-9.4496994   c0.592701-0.0395012,1.2168007-0.2085018,1.6473999-0.6621008c0.2627029-0.2768002,0.6612015-0.8926001,0.3770027-1.9071999   C51.7217522,4.2221999,45.7667542,3.5669,44.1973534,3.5669c-0.0078011,0-0.0156021,0-0.0223999,0   C42.8956528,2.8477001,37.311657,0.0039,29.6114559,0C21.8956566,0.0196,5.9610558,4.9527001,5.9610558,20.0771999   c0,8.5790997,2.7294998,13.0101986,5.1377001,16.9194012c1.8056993,2.9325981,3.3661995,5.4657974,3.21,9.2700005   c-0.2891006,7.0200996-5.7617998,16.1236-5.8174,16.2148972c-0.1866007,0.3086014-0.1934004,0.6943016-0.0157003,1.0093002   C8.6524553,63.8051987,8.9854555,64,9.346756,64h29.8066978c0.3095016,0,0.6015015-0.144001,0.7910004-0.3890991   c0.1893997-0.2451019,0.2549019-0.5645027,0.1767998-0.8642998c-0.3671989-1.4028015-1.0107994-5.4472008,0.3916016-7.2929001   c0.4970016-0.652401,1.2265015-0.9771004,2.2333984-0.9922028c4.3798027-0.0673981,7.047802-0.8002968,8.3973999-2.3066978   c1.2968979-1.4477005,1.1259995-3.2411995,0.9755974-4.8232002c-0.0565987-0.5946999-0.1103973-1.1636009-0.0878983-1.6812019   c0.6338005-0.5140991,0.9921989-1.0560989,1.0937996-1.6473999c0.110302-0.6464996-0.1142998-1.1728973-0.3574982-1.5639992   c1.1114006-0.3358994,1.5830002-0.980999,1.782299-1.480999c0.4432983-1.1108017-0.0235023-2.357399-0.7373009-3.5985985   C58.1280556,35.8814011,58.0596542,33.4384995,58.0342522,33.1416016z M52.0284538,35.7984009   c-0.3145027,0.0775986-0.5723,0.3031998-0.6905022,0.6049995c-0.1190987,0.3017006-0.0838966,0.642498,0.0937996,0.9134979   c0.3721008,0.5674019,1.502903,2.2930031,1.2607002,2.8994026c-0.0545998,0.1367989-0.2929001,0.2636986-0.6532974,0.3486977   c-0.3828011,0.0898018-1.2783012,0.3013-1.5605011,1.0688019c-0.2559013,0.6939011,0.1610985,1.2621994,0.410099,1.6021004   c0.089901,0.1224976,0.2578011,0.3511009,0.2647018,0.4301987c0,0-0.0517998,0.2210999-0.6416016,0.6235008   c-0.232399,0.1591988-0.3876991,0.408699-0.4257965,0.6879997c-0.1182022,0.8496017-0.0361023,1.7103996,0.0419998,2.5429001   c0.1278992,1.3437996,0.2382965,2.5040016-0.4746017,3.3003006c-0.9248009,1.032299-3.2588005,1.5839996-6.9384995,1.6406975   c-1.6152,0.0244026-2.9286995,0.6416016-3.7958984,1.7851028C37.2598572,56.4317017,37.5948563,60.0834999,37.923954,62H11.066556   c1.6307993-2.9916992,5.0008993-9.8294983,5.2401991-15.6512985c0.1816006-4.4151001-1.6093998-7.3227997-3.5058994-10.4009018   c-2.2685003-3.6830978-4.8397999-7.8579006-4.8397999-15.8705997C7.9610558,6.46,22.5508556,2.0181,29.6172562,2   c0.0244999,0,0.0488987,0,0.0732994,0c7.982399,0,13.6552963,3.3965001,13.7118988,3.4306998   c0.1854973,0.1128001,0.402298,0.1611004,0.622097,0.1416001c0.047802-0.0112,5.8623009-0.4868002,8.4736023,8.8125   l0.0009995,0.0049c-0.2647018,0.0537004-0.7910004,0.0321999-1.2040977-0.0580997   c-0.3535042-0.0816002-0.7217026,0.0389996-0.9619026,0.3076c-0.2421989,0.2690001-0.3194008,0.6483994-0.2032013,0.9906998   c0.0166016,0.0479002,1.6065025,4.8495998-0.009697,10.1147995c-0.0889015,0.2881012-0.0419998,0.6009998,0.1259995,0.8509998   c1.8232002,2.7124004,4.7030983,5.8638,5.7118988,6.9424019C55.7403526,34.0331993,54.9415512,35.078701,52.0284538,35.7984009z"/></g><g transform="matrix(0.1171875 0 0 0.1171875 272 239.00000082969655)" id="L1_15"><path d="M512,367.165V213.244c0-18.566-15.105-33.67-33.67-33.67H267.437v-3.955c0-5.193-1.837-9.961-4.89-13.7    c2.265-2.772,3.845-6.092,4.521-9.69c8.581-5.059,14.051-14.325,14.051-24.497c0-4.804-1.237-9.499-3.555-13.682    c2.317-4.183,3.555-8.877,3.555-13.682c0-10.13-5.427-19.314-13.842-24.376c0.107-0.992,0.16-1.988,0.16-2.988    c0-14.409-10.734-26.359-24.626-28.272c-5.072-8.523-14.305-13.949-24.437-13.949c-1.301,0-2.615,0.1-3.931,0.3    c-5.659-4.582-12.728-7.141-20.012-7.141c-0.973,0-1.948,0.049-2.936,0.147c-6.084-4.531-13.407-6.988-21.006-6.988    s-14.922,2.457-21.007,6.988c-0.989-0.098-1.964-0.147-2.936-0.147c-7.303,0-14.259,2.457-19.908,6.981    c-9.011,0.899-17.031,6.08-21.63,13.81c-13.892,1.912-24.626,13.862-24.626,28.271c0,0.999,0.053,1.996,0.16,2.988    c-8.414,5.062-13.842,14.246-13.842,24.376c0,4.805,1.237,9.499,3.555,13.682c-2.318,4.183-3.555,8.878-3.555,13.682    c0,10.172,5.469,19.438,14.052,24.497c0.377,2.008,1.044,3.926,1.946,5.714c-5.532,3.937-9.157,10.384-9.157,17.675v13.682    c0,11.964,9.733,21.699,21.699,21.699h3.563l0.583,3.642c1.351,8.446,5.714,16.114,12.286,21.591l2.916,2.43v22.625    c0,2.502-1.608,4.679-4,5.414L50.628,285.15c-14.938,4.597-24.975,18.186-24.975,33.816v99.506c0,9.887,3.426,18.985,9.14,26.188    H16.568C7.432,444.66,0,452.092,0,461.228v17.102c0,9.136,7.432,16.568,16.568,16.568h478.864c9.136,0,16.568-7.432,16.568-16.568    v-17.102c0-9.136-7.432-16.568-16.568-16.568h-87.044l-5.844-43.825h75.786C496.895,400.835,512,385.731,512,367.165z     M95.238,194.966c-3.123,0-5.665-2.541-5.665-5.665v-13.682c0-2.07,1.128-3.865,2.79-4.854l3.873,24.201H95.238z M96.421,148.493    c0.032-0.243,0.062-0.485,0.084-0.731c0.333-3.664-1.872-7.085-5.346-8.296c-5.04-1.756-8.426-6.471-8.426-11.733    c0-3.877,1.776-6.662,3.265-8.316c2.746-3.05,2.746-7.682-0.001-10.732c-1.49-1.654-3.265-4.439-3.265-8.316    c0-5.586,3.808-10.518,9.262-11.994c2.21-0.599,4.06-2.113,5.08-4.163c1.022-2.049,1.118-4.438,0.265-6.563    c-0.615-1.527-0.926-3.09-0.926-4.643c0-6.798,5.452-12.347,12.214-12.503c0.341,0.046,0.684,0.084,1.033,0.105    c3.59,0.206,6.868-1.977,8.048-5.365c1.727-4.958,6.317-8.314,11.475-8.423c0.155,0.011,0.311,0.018,0.468,0.02    c2.167,0.026,4.221-0.788,5.755-2.293c3.006-2.948,6.962-4.572,11.138-4.572c1.081,0,2.227,0.14,3.503,0.427    c2.591,0.583,5.308-0.156,7.247-1.976c3.635-3.411,8.32-5.29,13.194-5.29s9.559,1.879,13.193,5.291    c1.938,1.82,4.654,2.56,7.247,1.976c1.276-0.288,2.422-0.427,3.503-0.427c4.477,0,8.646,1.878,11.739,5.287    c2.142,2.361,5.479,3.228,8.499,2.21c1.31-0.441,2.523-0.656,3.706-0.656c5.262,0,9.978,3.386,11.734,8.425    c1.18,3.387,4.461,5.579,8.048,5.365c0.327-0.019,0.649-0.055,1.031-0.105c6.762,0.155,12.215,5.705,12.215,12.503    c0,1.553-0.311,3.116-0.925,4.642c-0.854,2.125-0.758,4.514,0.264,6.564c1.022,2.05,2.871,3.565,5.082,4.163    c5.452,1.476,9.261,6.408,9.261,11.994c0,3.877-1.776,6.662-3.265,8.316c-2.747,3.049-2.747,7.682,0,10.732    c1.49,1.654,3.265,4.439,3.265,8.316c0,5.262-3.386,9.978-8.426,11.733c-3.474,1.211-5.679,4.632-5.346,8.296    c0.022,0.246,0.052,0.49,0.086,0.733c-0.106,2.434-1.81,4.545-4.217,5.185c-0.257,0.068-7.924,0.241-7.924,0.241l-4.61-27.66    c-0.682-4.091-4.38-6.986-8.506-6.676c-0.372,0.028-0.736,0.073-1.102,0.123l-0.047,0.006c-4.108-0.073-7.908-2.16-10.199-5.616    c-1.486-2.239-3.993-3.586-6.681-3.586c-2.687,0-5.196,1.347-6.681,3.585c-2.333,3.518-6.228,5.618-10.422,5.618    c-4.193,0-8.088-2.1-10.422-5.618c-1.486-2.239-3.993-3.586-6.681-3.586c-2.687,0-5.196,1.347-6.681,3.585    c-2.333,3.518-6.228,5.618-10.422,5.618c-4.193,0-8.088-2.1-10.422-5.618c-1.486-2.239-3.993-3.586-6.681-3.586    c-2.687,0-5.196,1.347-6.681,3.585c-2.292,3.456-6.092,5.543-10.199,5.616l-0.047-0.006c-0.364-0.05-0.731-0.095-1.103-0.123    c-4.125-0.315-7.823,2.586-8.505,6.676l-4.609,27.663c0,0-7.666-0.172-7.923-0.24C98.229,153.04,96.524,150.927,96.421,148.493z     M251.404,175.619v3.955h-4.2l1.41-8.809C250.276,171.754,251.404,173.549,251.404,175.619z M108.47,169.954h1.085    c7.292,0,13.455-5.222,14.656-12.415l3.714-22.289c4.292-0.812,8.314-2.599,11.779-5.2c4.867,3.655,10.836,5.699,17.102,5.699    c6.265,0,12.235-2.045,17.102-5.699c4.867,3.655,10.836,5.699,17.102,5.699c6.265,0,12.235-2.045,17.102-5.699    c3.464,2.602,7.487,4.387,11.779,5.2l3.714,22.29c0.875,5.25,4.401,9.438,9.074,11.324l-1.713,10.71h-9.172    c-18.566,0-33.67,15.105-33.67,33.67v35.58c-1.443,0.563-2.985,0.869-4.544,0.869h-26.185c-2.92,0-5.763-1.029-8.006-2.899    l-27.457-22.881c-3.594-2.995-5.979-7.187-6.718-11.806L108.47,169.954z M115.302,282.026    c9.163-2.819,15.318-11.154,15.318-20.739v-9.264l8.506,7.089c5.119,4.266,11.607,6.615,18.271,6.615h26.185    c1.525,0,3.045-0.13,4.544-0.374v51.584c-4.704,0.768-9.486,1.166-14.286,1.166c-26.743,0-51.963-12.236-68.568-32.99    L115.302,282.026z M41.687,318.965c0-8.547,5.489-15.978,13.657-18.492l33.647-10.352c19.455,27.569,51.127,44.014,84.849,44.014    c4.789,0,9.564-0.337,14.286-0.988v34.018c0,18.566,15.104,33.67,33.67,33.67h34.739v43.29c0,0.181,0.015,0.357,0.027,0.534    H212.71v-9.086c0-18.566-15.105-33.67-33.67-33.67H93.528c-0.295,0-0.534-0.239-0.534-0.534v-51.307    c0-4.427-3.589-8.017-8.017-8.017s-8.017,3.589-8.017,8.017v51.307c0,9.136,7.432,16.568,16.568,16.568h51.841v26.722H67.875    c-14.44,0-26.188-11.748-26.188-26.188V318.965z M196.676,435.574v9.086h-35.273v-26.722h17.637    C188.764,417.937,196.676,425.849,196.676,435.574z M495.432,460.693c0.295,0,0.534,0.239,0.534,0.534v17.102    c0,0.295-0.239,0.534-0.534,0.534H16.568c-0.295,0-0.534-0.239-0.534-0.534v-17.102c0-0.295,0.239-0.534,0.534-0.534H495.432z     M272.541,444.66c0.012-0.177,0.027-0.354,0.027-0.534v-43.29h25.012l-5.844,43.825H272.541z M307.912,444.66l13.913-104.349    c0.6-4.496,4.471-7.885,9.007-7.885h38.462c4.535,0,8.407,3.389,9.006,7.885l13.914,104.349H307.912z M401.37,384.802    c-0.324,0-0.64,0.025-0.955,0.062l-6.223-46.672c-1.657-12.427-12.361-21.799-24.898-21.799h-38.462    c-12.537,0-23.242,9.372-24.899,21.799l-6.223,46.672c-0.313-0.037-0.631-0.062-0.955-0.062h-76.96    c-9.725,0-17.637-7.912-17.637-17.637V213.244c0-9.725,7.912-17.637,17.637-17.637H478.33c9.725,0,17.637,7.912,17.637,17.637    v153.921c0,9.725-7.912,17.637-17.637,17.637H401.37z"/><path d="M350.063,247.983c-13.851,0-25.119,11.268-25.119,25.119c0,13.851,11.268,25.119,25.119,25.119    c13.851,0,25.119-11.268,25.119-25.119C375.182,259.252,363.913,247.983,350.063,247.983z M350.063,282.188    c-5.01,0-9.086-4.076-9.086-9.086c0-5.01,4.076-9.086,9.086-9.086c5.01,0,9.086,4.076,9.086,9.086    C359.148,278.112,355.073,282.188,350.063,282.188z"/></g><g transform="matrix(0.1171875 0 0 0.1171875 108 -23.99999958515167)" id="L1_16"><path d="M434.301,325.094c-7.45-0.746-14.898,1.37-20.791,5.844c-4.695-7.878-12.702-13.468-21.964-14.395    c-7.456-0.746-14.899,1.37-20.791,5.844c-4.695-7.878-12.702-13.468-21.965-14.395c-5.691-0.57-11.373,0.528-16.365,3.069v-39.498    c27.594-29.971,42.756-68.767,42.756-109.626C375.182,72.645,302.537,0,213.244,0S51.307,72.645,51.307,161.937    s72.644,161.937,161.937,161.937c20.993,0,41.251-3.92,60.393-11.645v106.242c0,51.572,41.956,93.528,93.528,93.528    s93.528-41.956,93.528-93.528v-62.915C460.693,339.956,449.101,326.575,434.301,325.094z M273.637,217.519v77.27    c-18.979,8.659-39.27,13.052-60.393,13.052c-80.451,0-145.904-65.452-145.904-145.904c0-80.451,65.453-145.904,145.904-145.904    s145.904,65.453,145.904,145.904c0,30.493-9.375,59.712-26.722,84.192v-27.391c0-15.601-11.592-28.982-26.391-30.464    c-8.294-0.828-16.575,1.883-22.721,7.444C277.164,201.283,273.637,209.229,273.637,217.519z M444.66,418.472    c0,42.731-34.764,77.495-77.495,77.495s-77.495-34.764-77.495-77.495V217.52c0-3.768,1.603-7.381,4.401-9.911    c2.486-2.25,5.626-3.45,8.958-3.45c0.466,0,0.935,0.023,1.408,0.07c6.704,0.67,11.956,7.044,11.956,14.509v118.497    c0,4.427,3.589,8.017,8.017,8.017s8.017-3.589,8.017-8.017c0-3.768,1.603-7.381,4.401-9.912c2.834-2.563,6.517-3.764,10.366-3.379    c6.704,0.67,11.956,7.044,11.956,14.508v7.333c0,4.427,3.589,8.017,8.017,8.017c4.427,0,8.017-3.589,8.017-8.017    c0-3.768,1.603-7.381,4.401-9.912c2.834-2.563,6.515-3.764,10.366-3.379c6.704,0.67,11.956,7.044,11.956,14.508v7.333    c0,4.427,3.589,8.017,8.017,8.017c4.427,0,8.017-3.589,8.017-8.017c0-3.768,1.603-7.381,4.401-9.912    c2.834-2.564,6.517-3.764,10.366-3.379c6.704,0.671,11.956,7.044,11.956,14.509V418.472z"/><path d="M261.02,88.509c-12.713-12.713-29.338-19.848-46.811-20.092c-18.359-0.26-35.587,6.684-48.622,19.538    c-13.037,12.857-20.217,30.02-20.217,48.329c0,4.427,3.589,8.017,8.017,8.017s8.017-3.589,8.017-8.017    c0-13.984,5.483-27.093,15.441-36.913c9.955-9.818,23.139-15.109,37.141-14.923c27.317,0.381,50.716,23.779,51.095,51.095    c0.37,26.541-19.177,48.98-45.468,52.196c-8.201,1.003-14.385,8.039-14.385,16.368v9.137c0,4.427,3.589,8.017,8.017,8.017    s8.017-3.589,8.017-8.017v-9.137c0-0.246,0.157-0.436,0.299-0.454c34.434-4.211,60.037-33.589,59.552-68.333    C280.869,117.847,273.733,101.222,261.02,88.509z"/><path d="M213.244,235.157c-6.778,0-12.292,5.514-12.292,12.292s5.514,12.292,12.292,12.292s12.292-5.514,12.292-12.292    S220.022,235.157,213.244,235.157z"/></g><g transform="matrix(0.11601236462593079 0 0 0.11601236462593079 270.5769709646702 69.57696902399869)" id="L1_23"><path d="M462.806,68.109H27.193C12.199,68.109,0,80.307,0,95.301v299.396c0,14.994,12.199,27.193,27.193,27.193h435.613   c14.995,0,27.194-12.199,27.194-27.193V95.301C490,80.307,477.801,68.109,462.806,68.109z M27.193,88.109h435.613   c3.967,0,7.194,3.227,7.194,7.192V126.1H20V95.301C20,91.335,23.226,88.109,27.193,88.109z M462.806,401.891H27.193   c-3.966,0-7.193-3.227-7.193-7.193V146.1h450v248.598C470,398.665,466.772,401.891,462.806,401.891z"/><path d="M188.111,210.43c-3.905-3.905-10.237-3.904-14.142,0.001l-45.152,45.152c-1.875,1.875-2.929,4.419-2.929,7.071   c0,2.652,1.054,5.195,2.929,7.071l45.152,45.151c1.953,1.953,4.512,2.929,7.071,2.929s5.119-0.977,7.071-2.929   c3.905-3.905,3.905-10.237-0.001-14.143l-38.081-38.08l38.082-38.082C192.017,220.668,192.017,214.335,188.111,210.43z"/><path d="M308.912,210.431c-3.905-3.905-10.235-3.905-14.143-0.001c-3.905,3.905-3.905,10.237,0,14.143l38.081,38.082l-38.081,38.08   c-3.905,3.905-3.905,10.237,0,14.143c1.953,1.953,4.512,2.929,7.071,2.929c2.559,0,5.118-0.977,7.071-2.929l45.152-45.151   c1.875-1.876,2.929-4.419,2.929-7.071c0-2.652-1.054-5.196-2.929-7.071L308.912,210.431z"/><path d="M269.591,208.576c-4.931-2.491-10.945-0.513-13.436,4.417l-47.283,93.591c-2.49,4.929-0.513,10.944,4.417,13.435   c1.446,0.73,2.985,1.076,4.501,1.076c3.653,0,7.173-2.009,8.934-5.492l47.283-93.591   C276.497,217.082,274.52,211.067,269.591,208.576z"/></g></defs><g fi:class="KUsePattern"><pattern id="pattern_L1_14" width="350" height="350" patternUnits="userSpaceOnUse"><use xlink:href="#L1_14" x="-350" y="-350"/><use xlink:href="#L1_14" x="0" y="-350"/><use xlink:href="#L1_14" x="350" y="-350"/><use xlink:href="#L1_14" x="-350" y="0"/><use xlink:href="#L1_14" x="0" y="0"/><use xlink:href="#L1_14" x="350" y="0"/><use xlink:href="#L1_14" x="-350" y="350"/><use xlink:href="#L1_14" x="0" y="350"/><use xlink:href="#L1_14" x="350" y="350"/></pattern><rect x="0" y="0" width="100%" height="100%" fill="url(#pattern_L1_14)"/></g><g fi:class="KUsePattern"><pattern id="pattern_L1_15" width="350" height="350" patternUnits="userSpaceOnUse"><use xlink:href="#L1_15" x="-350" y="-350"/><use xlink:href="#L1_15" x="0" y="-350"/><use xlink:href="#L1_15" x="350" y="-350"/><use xlink:href="#L1_15" x="-350" y="0"/><use xlink:href="#L1_15" x="0" y="0"/><use xlink:href="#L1_15" x="350" y="0"/><use xlink:href="#L1_15" x="-350" y="350"/><use xlink:href="#L1_15" x="0" y="350"/><use xlink:href="#L1_15" x="350" y="350"/></pattern><rect x="0" y="0" width="100%" height="100%" fill="url(#pattern_L1_15)"/></g><g fi:class="KUsePattern"><pattern id="pattern_L1_16" width="350" height="350" patternUnits="userSpaceOnUse"><use xlink:href="#L1_16" x="-350" y="-350"/><use xlink:href="#L1_16" x="0" y="-350"/><use xlink:href="#L1_16" x="350" y="-350"/><use xlink:href="#L1_16" x="-350" y="0"/><use xlink:href="#L1_16" x="0" y="0"/><use xlink:href="#L1_16" x="350" y="0"/><use xlink:href="#L1_16" x="-350" y="350"/><use xlink:href="#L1_16" x="0" y="350"/><use xlink:href="#L1_16" x="350" y="350"/></pattern><rect x="0" y="0" width="100%" height="100%" fill="url(#pattern_L1_16)"/></g><g fi:class="KUsePattern"><pattern id="pattern_L1_23" width="350" height="350" patternUnits="userSpaceOnUse"><use xlink:href="#L1_23" x="-350" y="-350"/><use xlink:href="#L1_23" x="0" y="-350"/><use xlink:href="#L1_23" x="350" y="-350"/><use xlink:href="#L1_23" x="-350" y="0"/><use xlink:href="#L1_23" x="0" y="0"/><use xlink:href="#L1_23" x="350" y="0"/><use xlink:href="#L1_23" x="-350" y="350"/><use xlink:href="#L1_23" x="0" y="350"/><use xlink:href="#L1_23" x="350" y="350"/></pattern><rect x="0" y="0" width="100%" height="100%" fill="url(#pattern_L1_23)"/></g></svg>