<svg xmlns="http://www.w3.org/2000/svg" xmlns:xlink="http://www.w3.org/1999/xlink" xmlns:fi="http://pattern.flaticon.com/" x="0" y="0" width="800" height="800" viewBox="0 0 2153.846153846154 2153.846153846154"><rect x="0px" y="0px" width="100%" height="100%" opacity="1" fill="#ffffff"/><defs><g transform="matrix(0.15132637321949005 0 0 0.15132637321949005 97 248)" id="L1_24"><path d="M304.42,330.901h-43.219c-1.56,0-2.834-1.273-2.834-2.834v-10.52c0-1.559-1.275-2.834-2.834-2.834h-60.475   c-1.56,0-2.835,1.275-2.835,2.834v10.52c0,1.561-1.275,2.834-2.835,2.834h-32.491c-1.56,0-2.835,1.275-2.835,2.834v12.17   c0,1.559,1.275,2.834,2.835,2.834h147.521c1.559,0,2.834-1.275,2.834-2.834v-12.17C307.254,332.179,305.979,330.901,304.42,330.901   z"/><g><path d="M377.032,46.368h-308.4c-10.73,0-19.459,8.73-19.459,19.462c0,0,0,37.109,0,50.761c0,6.711-0.498,7.66,4.004,7.66    c2.391,0,5.039,0,7.72,0c3.778,0,3.003-0.949,3.003-7.785c0-13.621,0-50.636,0-50.636c0-2.565,2.168-4.733,4.732-4.733h308.4    c2.563,0,4.731,2.168,4.731,4.733v189.999h-219.87c0,0-7.749-0.014-7.749,10.006c0,5.941,0,17.823,0,23.766    c0,10.006,8,10.006,8,10.006h214.888c10.729,0,19.461-8.729,19.461-19.459V65.83C396.493,55.099,387.763,46.368,377.032,46.368z     M222.833,282.804c-4.845,0-8.771-3.926-8.771-8.768s3.926-8.77,8.771-8.77c4.84,0,8.767,3.928,8.767,8.77    S227.673,282.804,222.833,282.804z"/><path d="M124.125,141.633H12.559C5.632,141.633,0,147.266,0,154.193v183.372c0,6.926,5.632,12.561,12.559,12.561h111.566    c6.923,0,12.559-5.635,12.559-12.561V154.193C136.684,147.266,131.048,141.633,124.125,141.633z M54.58,154.443h27.523    c1.313,0,2.38,1.064,2.38,2.381c0,1.314-1.066,2.379-2.38,2.379H54.58c-1.315,0-2.379-1.065-2.379-2.379    C52.201,155.507,53.265,154.443,54.58,154.443z M68.175,341.304c-3.59,0-6.5-2.91-6.5-6.5s2.91-6.5,6.5-6.5s6.5,2.91,6.5,6.5    S71.765,341.304,68.175,341.304z M125.893,322.2c0,1.676-1.342,3.047-2.98,3.047H13.774c-1.639,0-2.98-1.371-2.98-3.047V169.825    c0-1.676,1.342-3.046,2.98-3.046h109.139c1.639,0,2.98,1.371,2.98,3.046V322.2z"/></g></g><g transform="matrix(0.1171875 0 0 0.1171875 254 162)" id="L1_26"><path d="m140 206c-5.519531 0-10 4.480469-10 10s4.480469 10 10 10 10-4.480469 10-10-4.480469-10-10-10zm0 0"/><path d="m162.046875 183.65625c14.6875-23.578125 40.09375-37.65625 67.953125-37.65625 5.523438 0 10-4.476562 10-10s-4.476562-10-10-10c-34.8125 0-66.5625 17.601562-84.929688 47.082031-2.917968 4.6875-1.484374 10.855469 3.203126 13.777344 4.707031 2.929687 10.863281 1.46875 13.773437-3.203125zm0 0"/><path d="m160 462c0 27.570312 22.429688 50 50 50h40c27.570312 0 50-22.429688 50-50 0-8.457031 0-27.851562 0-36.238281 0-31.039063 12.6875-60.738281 35.726562-83.625 28.550782-28.351563 44.273438-66.042969 44.273438-106.136719 0-83.53125-68.5-151.40625-152.621094-149.980469-78.332031 1.34375-144.398437 66.109375-147.273437 144.371094-1.527344 41.460937 13.65625 80.644531 42.753906 110.332031 23.953125 24.417969 37.140625 54.660156 37.140625 85.148438zm120 0c0 16.542969-13.457031 30-30 30h-40c-16.542969 0-30-13.457031-30-30v-16h100zm-60-36v-140h20v140zm-82.859375-99.28125c-25.214844-25.722656-38.371094-59.671875-37.046875-95.589844 2.492188-67.824218 59.746094-123.949218 127.628906-125.109375 72.582032-1.246093 132.277344 57.296875 132.277344 129.980469 0 34.726562-13.625 67.378906-38.367188 91.945312-26.847656 26.671876-41.632812 61.410157-41.632812 97.816407v.238281h-20v-140h10c16.542969 0 30-13.457031 30-30s-13.457031-30-30-30-30 13.457031-30 30c0 3.507812.609375 6.871094 1.71875 10h-23.4375c1.109375-3.128906 1.71875-6.492188 1.71875-10 0-16.542969-13.457031-30-30-30s-30 13.457031-30 30 13.457031 30 30 30h10v140h-20v-.128906c0-35.757813-15.222656-70.972656-42.859375-99.152344zm122.859375-70.71875c0-5.515625 4.484375-10 10-10s10 4.484375 10 10-4.484375 10-10 10-10-4.484375-10-10zm-60 0c0 5.515625-4.484375 10-10 10s-10-4.484375-10-10 4.484375-10 10-10 10 4.484375 10 10zm0 0"/><path d="m240 56v-46c0-5.523438-4.476562-10-10-10s-10 4.476562-10 10v46c0 5.523438 4.476562 10 10 10s10-4.476562 10-10zm0 0"/><path d="m391.210938 64.789062c-3.90625-3.90625-10.234376-3.90625-14.144532 0l-28.277344 28.28125c-3.90625 3.902344-3.90625 10.234376 0 14.140626s10.234376 3.90625 14.144532 0l28.277344-28.28125c3.90625-3.90625 3.90625-10.234376 0-14.140626zm0 0"/><path d="m111.210938 107.210938c3.90625-3.90625 3.90625-10.238282 0-14.140626l-28.277344-28.28125c-3.90625-3.90625-10.238282-3.90625-14.144532 0s-3.90625 10.238282 0 14.140626l28.277344 28.28125c3.90625 3.90625 10.238282 3.90625 14.144532 0zm0 0"/><path d="m410 206c-5.523438 0-10 4.476562-10 10s4.476562 10 10 10h40c5.523438 0 10-4.476562 10-10s-4.476562-10-10-10zm0 0"/><path d="m10 206c-5.523438 0-10 4.476562-10 10s4.476562 10 10 10h40c5.523438 0 10-4.476562 10-10s-4.476562-10-10-10zm0 0"/></g><g transform="matrix(0.09312186211581883 0.028218745509685412 -0.028218745509685412 0.09312186211581883 113.3993840474456 66.8911706965589)" id="L1_28"><path d="m347.339844 155.148438c-5.519532 0-10 4.46875-10 9.996093 0 5.523438 4.480468 10 10 10 5.53125 0 10-4.476562 10-10 0-5.527343-4.46875-9.996093-10-9.996093zm0 0"/><path d="m165.644531 336.839844c-5.53125 0-10 4.480468-10 10 0 5.53125 4.46875 10 10 10 5.519531 0 10-4.46875 10-10 0-5.519532-4.480469-10-10-10zm0 0"/><path d="m500.058594 61.519531c-3.375-.785156-6.921875.234375-9.359375 2.695313l-41.457031 41.785156h-19.875l-21.878907-22.667969v-20.152343l40.863281-41.472657c2.417969-2.453125 3.402344-5.980469 2.601563-9.335937-.796875-3.351563-3.265625-6.054688-6.53125-7.15625-10.265625-3.460938-21.007813-5.214844-31.933594-5.214844-32.570312 0-62.160156 15.1875-81.183593 41.667969-17.804688 24.789062-23.292969 55.167969-15.429688 84.242187l-73.660156 73.660156-122.71875-123v-24.140624c0-3.511719-1.84375-6.769532-4.855469-8.574219l-70.707031-42.429688c-3.9375-2.363281-8.972656-1.742187-12.214844 1.503907l-28.28125 28.277343c-3.242188 3.246094-3.863281 8.28125-1.503906 12.21875l42.421875 70.707031c1.804687 3.011719 5.058593 4.851563 8.570312 4.855469l24.132813.007813 122.730468 123-73.378906 73.378906c-29.074218-7.859375-59.46875-2.363281-84.269531 15.453125-26.464844 19.011719-41.640625 48.59375-41.640625 81.164063 0 10.921874 1.753906 21.667968 5.214844 31.929687 1.105468 3.285156 3.835937 5.765625 7.210937 6.546875 3.378907.785156 6.921875-.234375 9.363281-2.695312l41.453126-41.78125h19.984374l22.769532 22.769531v19.984375l-41.78125 41.453125c-2.460938 2.441406-3.480469 5.984375-2.695313 9.363281.78125 3.375 3.261719 6.105469 6.546875 7.210938 10.261719 3.460937 21.007813 5.214843 31.929688 5.214843 32.570312 0 62.148437-15.179687 81.164062-41.644531 17.816406-24.800781 23.3125-55.191406 15.453125-84.265625l58.933594-58.933594 13.5 14.664063-6.195313 6.191406c-3.90625 3.90625-3.90625 10.238281 0 14.144531 3.90625 3.902344 10.234376 3.902344 14.144532 0l5.609375-5.609375 126.664062 137.585938c.09375.101562.191407.199218.289063.296875 23.4375 23.4375 61.410156 23.445312 84.859375-.003907 23.382812-23.394531 23.382812-61.460937 0-84.855468-.101563-.101563-.207031-.199219-.3125-.296875l-137.800781-126.421875 5.546874-5.546875c3.90625-3.902344 3.90625-10.234375 0-14.140625s-10.234374-3.90625-14.144531 0l-6.152343 6.15625-14.691407-13.484375 59.21875-59.21875c8.417969 2.25 17.105469 3.390625 25.90625 3.390625 55.140625 0 99.996094-44.859375 99.996094-99.996094 0-10.925781-1.753906-21.667969-5.214844-31.933594-1.105469-3.285156-3.835937-5.765625-7.210937-6.546875zm-411.773438 40.414063c-1.875-1.878906-4.417968-2.835938-7.074218-2.835938l-22.617188-.007812-35.492188-59.257813 17.238282-17.238281 59.15625 35.5v22.617188c0 2.648437 1.050781 5.1875 2.921875 7.0625l125.65625 125.941406-14.144531 14.140625zm254.363282 195.0625 138.269531 126.847656c15.445312 15.609375 15.398437 40.882812-.144531 56.433594-15.578126 15.578125-40.796876 15.625-56.4375.136718l-127.078126-138.035156zm-14.75-13.535156-44.199219 44.191406-13.5-14.664063 43.007812-43.011719zm84.589843-103.464844c-8.746093 0-17.347656-1.402344-25.558593-4.167969-3.597657-1.207031-7.574219-.277344-10.261719 2.40625-50.132813 50.132813-158.15625 158.152344-197.933594 197.933594-2.6875 2.6875-3.621094 6.664062-2.40625 10.265625 8.3125 24.683594 4.335937 51.011718-10.914063 72.242187-15.207031 21.167969-38.871093 33.3125-64.917968 33.3125-2.925782 0-5.835938-.160156-8.71875-.46875l31.761718-31.515625c1.890626-1.875 2.957032-4.429687 2.957032-7.097656v-28.289062c0-2.652344-1.054688-5.195313-2.929688-7.070313l-28.628906-28.628906c-1.875-1.875-4.417969-2.929688-7.070312-2.929688h-28.289063c-2.667969 0-5.222656 1.066407-7.101563 2.957031l-31.511718 31.761719c-.3125-2.882812-.46875-5.792969-.46875-8.71875 0-26.050781 12.140625-49.710937 33.3125-64.917969 21.226562-15.25 47.558594-19.230468 72.246094-10.914062 3.597656 1.214844 7.574218.28125 10.261718-2.40625.550782-.546875 197.792969-197.792969 197.933594-197.933594 2.6875-2.6875 3.617188-6.660156 2.40625-10.261718-8.316406-24.683594-4.347656-51.003907 10.890625-72.21875 15.21875-21.1875 38.886719-33.335938 64.9375-33.335938 3.015625 0 6.011719.167969 8.980469.496094l-31.101563 31.566406c-1.84375 1.871094-2.875 4.390625-2.875 7.015625v28.289063c0 2.59375 1.003907 5.082031 2.804688 6.945312l27.628906 28.628906c1.882813 1.953125 4.480469 3.054688 7.195313 3.054688h28.289062c2.664062 0 5.21875-1.0625 7.097656-2.957032l31.511719-31.757812c.3125 2.882812.46875 5.792969.46875 8.71875 0 44.109375-35.886719 79.996094-79.996094 79.996094zm0 0"/><path d="m311.988281 186.355469-125.136719 125.136719c-3.902343 3.902343-3.902343 10.234374 0 14.140624 3.90625 3.90625 10.238282 3.90625 14.144532 0l125.136718-125.136718c3.90625-3.902344 3.90625-10.234375 0-14.140625s-10.238281-3.90625-14.144531 0zm0 0"/><path d="m438.355469 452c3.90625 3.894531 10.238281 3.894531 14.144531-.023438 3.898438-3.910156 3.886719-10.242187-.023438-14.140624l-90.136718-89.847657c-3.910156-3.898437-10.246094-3.886719-14.140625.023438-3.902344 3.914062-3.890625 10.242187.019531 14.140625zm0 0"/></g><g transform="matrix(0.055925603955984116 0 0 0.055925603955984116 258.782855970785 -10.217144029214978)" id="L1_29"><path d="M 859.375 656.25 L 703.125 656.25 C 694.492188 656.25 687.5 663.242188 687.5 671.875 L 687.5 859.375 C 687.5 868.007812 694.492188 875 703.125 875 L 859.375 875 C 868.007812 875 875 868.007812 875 859.375 L 875 671.875 C 875 663.242188 868.007812 656.25 859.375 656.25 Z M 843.75 843.75 L 718.75 843.75 L 718.75 687.5 L 843.75 687.5 Z M 843.75 843.75 " fill="#000000" fill-opacity="1" stroke="none"/><path d="M 649.453125 420.4375 C 655.554688 426.539062 665.4375 426.539062 671.542969 420.4375 L 782.03125 309.953125 C 788.132812 303.847656 788.132812 293.953125 782.03125 287.851562 L 649.4375 155.277344 C 643.242188 149.410156 633.539062 149.410156 627.34375 155.277344 L 516.875 265.761719 C 510.773438 271.867188 510.773438 281.761719 516.875 287.851562 Z M 638.390625 188.421875 L 748.898438 298.902344 L 660.5 387.300781 L 550 276.804688 Z M 638.390625 188.421875 " fill="#000000" fill-opacity="1" stroke="none"/><path d="M 505.828125 579.6875 C 509.96875 579.6875 513.945312 578.039062 516.875 575.109375 L 627.34375 464.605469 C 633.445312 458.507812 633.445312 448.613281 627.34375 442.507812 L 494.765625 309.9375 C 488.5625 304.078125 478.867188 304.078125 472.664062 309.9375 L 362.207031 420.421875 C 356.101562 426.519531 356.101562 436.414062 362.207031 442.507812 L 494.78125 575.109375 C 497.710938 578.039062 501.683594 579.6875 505.828125 579.6875 Z M 483.714844 343.089844 L 594.199219 453.574219 L 505.828125 541.988281 L 395.3125 431.488281 Z M 483.714844 343.089844 " fill="#000000" fill-opacity="1" stroke="none"/><path d="M 78.125 250 L 265.625 250 C 274.257812 250 281.25 243.007812 281.25 234.375 L 281.25 78.125 C 281.25 69.492188 274.257812 62.5 265.625 62.5 L 78.125 62.5 C 69.492188 62.5 62.5 69.492188 62.5 78.125 L 62.5 234.375 C 62.5 243.007812 69.492188 250 78.125 250 Z M 93.75 93.75 L 250 93.75 L 250 218.75 L 93.75 218.75 Z M 93.75 93.75 " fill="#000000" fill-opacity="1" stroke="none"/><path d="M 78.125 468.75 L 265.625 468.75 C 274.257812 468.75 281.25 461.757812 281.25 453.125 L 281.25 296.875 C 281.25 288.242188 274.257812 281.25 265.625 281.25 L 78.125 281.25 C 69.492188 281.25 62.5 288.242188 62.5 296.875 L 62.5 453.125 C 62.5 461.757812 69.492188 468.75 78.125 468.75 Z M 93.75 312.5 L 250 312.5 L 250 437.5 L 93.75 437.5 Z M 93.75 312.5 " fill="#000000" fill-opacity="1" stroke="none"/><path d="M 281.25 671.875 L 281.25 515.625 C 281.25 506.992188 274.257812 500 265.625 500 L 78.125 500 C 69.492188 500 62.5 506.992188 62.5 515.625 L 62.5 671.875 C 62.5 680.507812 69.492188 687.5 78.125 687.5 L 265.625 687.5 C 274.257812 687.5 281.25 680.507812 281.25 671.875 Z M 250 656.25 L 93.75 656.25 L 93.75 531.25 L 250 531.25 Z M 250 656.25 " fill="#000000" fill-opacity="1" stroke="none"/><path d="M 171.875 718.75 C 137.359375 718.75 109.375 746.734375 109.375 781.25 C 109.375 815.765625 137.359375 843.75 171.875 843.75 C 206.390625 843.75 234.375 815.765625 234.375 781.25 C 234.375 746.734375 206.390625 718.75 171.875 718.75 Z M 171.875 812.5 C 154.613281 812.5 140.625 798.511719 140.625 781.25 C 140.625 763.988281 154.613281 750 171.875 750 C 189.136719 750 203.125 763.988281 203.125 781.25 C 203.125 798.511719 189.136719 812.5 171.875 812.5 Z M 171.875 812.5 " fill="#000000" fill-opacity="1" stroke="none"/><path d="M 875 593.75 L 586.71875 593.75 L 837.28125 343.089844 C 861.679688 318.691406 861.679688 279.121094 837.28125 254.710938 L 682.59375 100.03125 C 670.894531 88.28125 654.976562 81.6875 638.390625 81.734375 C 621.816406 81.679688 605.902344 88.257812 594.199219 100 L 343.75 350.582031 L 343.75 62.5 C 343.75 27.984375 315.765625 0 281.25 0 L 62.5 0 C 27.984375 0 0 27.984375 0 62.5 L 0 765.625 C 0.117188 860.503906 76.996094 937.382812 171.875 937.5 L 875 937.5 C 909.515625 937.5 937.5 909.515625 937.5 875 L 937.5 656.25 C 937.5 621.734375 909.515625 593.75 875 593.75 Z M 343.75 512.5 L 439.527344 608.28125 L 351.140625 696.65625 L 343.75 689.261719 Z M 342.34375 786.527344 C 342.53125 785.0625 342.769531 783.601562 342.921875 782.128906 C 343.417969 776.671875 343.75 771.1875 343.75 765.632812 L 343.75 732.246094 C 345.996094 733.574219 348.535156 734.304688 351.140625 734.375 C 355.28125 734.375 359.257812 732.726562 362.1875 729.796875 L 472.664062 619.316406 C 478.769531 613.210938 478.769531 603.320312 472.664062 597.222656 L 343.75 468.300781 L 343.75 394.78125 L 616.296875 122.140625 C 628.507812 109.929688 648.289062 109.929688 660.5 122.140625 L 815.1875 276.828125 C 827.386719 289.03125 827.386719 308.8125 815.1875 321.015625 L 370.484375 765.863281 L 341.25 795.113281 C 341.738281 792.265625 342 789.375 342.34375 786.515625 Z M 500 687.5 L 625 687.5 L 625 843.75 L 500 843.75 Z M 406.25 774.289062 L 406.25 843.75 L 336.816406 843.75 Z M 200.140625 903.390625 C 196.234375 904.203125 192.234375 904.746094 188.222656 905.21875 C 187.507812 905.296875 186.828125 905.460938 186.128906 905.527344 C 181.4375 906 176.753906 906.25 171.875 906.25 C 94.242188 906.164062 31.335938 843.257812 31.25 765.625 L 31.25 62.5 C 31.25 45.238281 45.238281 31.25 62.5 31.25 L 281.25 31.25 C 298.511719 31.25 312.5 45.238281 312.5 62.5 L 312.5 765.625 C 312.5 770.4375 312.25 775.1875 311.777344 779.878906 C 311.777344 780.589844 311.546875 781.28125 311.46875 781.992188 C 310.996094 786.015625 310.4375 790 309.640625 793.890625 L 309.53125 794.328125 C 298.027344 848.976562 255.359375 891.695312 200.722656 903.25 Z M 906.25 875 C 906.25 892.261719 892.261719 906.25 875 906.25 L 270.761719 906.25 C 278.847656 900.542969 286.414062 894.160156 293.402344 887.152344 L 305.566406 875 L 421.875 875 C 430.507812 875 437.5 868.007812 437.5 859.375 L 437.5 743.015625 L 468.75 711.765625 L 468.75 859.375 C 468.75 868.007812 475.742188 875 484.375 875 L 640.625 875 C 649.257812 875 656.25 868.007812 656.25 859.375 L 656.25 671.875 C 656.25 663.242188 649.257812 656.25 640.625 656.25 L 524.226562 656.25 L 555.476562 625 L 875 625 C 892.261719 625 906.25 638.988281 906.25 656.25 Z M 906.25 875 " fill="#000000" fill-opacity="1" stroke="none"/></g></defs><g fi:class="KUsePattern"><pattern id="pattern_L1_24" width="350" height="350" patternUnits="userSpaceOnUse"><use xlink:href="#L1_24" x="-350" y="-350"/><use xlink:href="#L1_24" x="0" y="-350"/><use xlink:href="#L1_24" x="350" y="-350"/><use xlink:href="#L1_24" x="-350" y="0"/><use xlink:href="#L1_24" x="0" y="0"/><use xlink:href="#L1_24" x="350" y="0"/><use xlink:href="#L1_24" x="-350" y="350"/><use xlink:href="#L1_24" x="0" y="350"/><use xlink:href="#L1_24" x="350" y="350"/></pattern><rect x="0" y="0" width="100%" height="100%" fill="url(#pattern_L1_24)"/></g><g fi:class="KUsePattern"><pattern id="pattern_L1_26" width="350" height="350" patternUnits="userSpaceOnUse"><use xlink:href="#L1_26" x="-350" y="-350"/><use xlink:href="#L1_26" x="0" y="-350"/><use xlink:href="#L1_26" x="350" y="-350"/><use xlink:href="#L1_26" x="-350" y="0"/><use xlink:href="#L1_26" x="0" y="0"/><use xlink:href="#L1_26" x="350" y="0"/><use xlink:href="#L1_26" x="-350" y="350"/><use xlink:href="#L1_26" x="0" y="350"/><use xlink:href="#L1_26" x="350" y="350"/></pattern><rect x="0" y="0" width="100%" height="100%" fill="url(#pattern_L1_26)"/></g><g fi:class="KUsePattern"><pattern id="pattern_L1_28" width="350" height="350" patternUnits="userSpaceOnUse"><use xlink:href="#L1_28" x="-350" y="-350"/><use xlink:href="#L1_28" x="0" y="-350"/><use xlink:href="#L1_28" x="350" y="-350"/><use xlink:href="#L1_28" x="-350" y="0"/><use xlink:href="#L1_28" x="0" y="0"/><use xlink:href="#L1_28" x="350" y="0"/><use xlink:href="#L1_28" x="-350" y="350"/><use xlink:href="#L1_28" x="0" y="350"/><use xlink:href="#L1_28" x="350" y="350"/></pattern><rect x="0" y="0" width="100%" height="100%" fill="url(#pattern_L1_28)"/></g><g fi:class="KUsePattern"><pattern id="pattern_L1_29" width="350" height="350" patternUnits="userSpaceOnUse"><use xlink:href="#L1_29" x="-350" y="-350"/><use xlink:href="#L1_29" x="0" y="-350"/><use xlink:href="#L1_29" x="350" y="-350"/><use xlink:href="#L1_29" x="-350" y="0"/><use xlink:href="#L1_29" x="0" y="0"/><use xlink:href="#L1_29" x="350" y="0"/><use xlink:href="#L1_29" x="-350" y="350"/><use xlink:href="#L1_29" x="0" y="350"/><use xlink:href="#L1_29" x="350" y="350"/></pattern><rect x="0" y="0" width="100%" height="100%" fill="url(#pattern_L1_29)"/></g></svg>