<svg xmlns="http://www.w3.org/2000/svg" xmlns:xlink="http://www.w3.org/1999/xlink" xmlns:fi="http://pattern.flaticon.com/" x="0" y="0" width="800" height="800" viewBox="0 0 2153.846153846154 2153.846153846154"><rect x="0px" y="0px" width="100%" height="100%" opacity="1" fill="#ffffff"/><defs><path d="M590.045,126.94l-81.6-122.4c-2.04-2.856-5.1-4.488-8.568-4.488h-408c-3.468,0-6.528,1.632-8.568,4.488l-81.6,122.4    c-2.244,3.264-2.244,7.752-0.204,11.22l285.6,448.8c1.836,2.856,5.1,4.692,8.568,4.692s6.732-1.836,8.568-4.692l285.6-448.8    C592.289,134.692,592.289,130.408,590.045,126.94z M300.977,137.752h147.9l-147.9,414.324V137.752z M300.977,127.552v-107.1    h189.924l-38.352,107.1H300.977z M290.777,127.552H139.205l-38.352-107.1h189.924V127.552z M290.777,137.752v414.324    l-147.9-414.324H290.777z M268.133,518.824L25.577,137.752h106.284L268.133,518.824z M459.689,137.752h106.284L323.621,518.824    L459.689,137.752z M565.769,127.552H463.361l35.7-99.96L565.769,127.552z M92.693,27.592l35.7,99.96H25.985L92.693,27.592z" transform="matrix(0.10140205174684525 0 0 0.10140205174684525 221 159.99999980194912)" id="L1_30"/><path d="M52.354,8.51C51.196,4.22,42.577,0,27.5,0C12.423,0,3.803,4.22,2.646,8.51C2.562,8.657,2.5,8.818,2.5,9v0.5V21v0.5V22v11  v0.5V34v12c0,0.162,0.043,0.315,0.117,0.451C3.798,51.346,14.364,55,27.5,55c13.106,0,23.655-3.639,24.875-8.516  C52.455,46.341,52.5,46.176,52.5,46V34v-0.5V33V22v-0.5V21V9.5V9C52.5,8.818,52.438,8.657,52.354,8.51z M50.421,33.985  c-0.028,0.121-0.067,0.241-0.116,0.363c-0.04,0.099-0.089,0.198-0.143,0.297c-0.067,0.123-0.142,0.246-0.231,0.369  c-0.066,0.093-0.141,0.185-0.219,0.277c-0.111,0.131-0.229,0.262-0.363,0.392c-0.081,0.079-0.17,0.157-0.26,0.236  c-0.164,0.143-0.335,0.285-0.526,0.426c-0.082,0.061-0.17,0.12-0.257,0.18c-0.226,0.156-0.462,0.311-0.721,0.463  c-0.068,0.041-0.141,0.08-0.212,0.12c-0.298,0.168-0.609,0.335-0.945,0.497c-0.043,0.021-0.088,0.041-0.132,0.061  c-0.375,0.177-0.767,0.351-1.186,0.519c-0.012,0.005-0.024,0.009-0.036,0.014c-2.271,0.907-5.176,1.67-8.561,2.17  c-0.017,0.002-0.034,0.004-0.051,0.007c-0.658,0.097-1.333,0.183-2.026,0.259c-0.113,0.012-0.232,0.02-0.346,0.032  c-0.605,0.063-1.217,0.121-1.847,0.167c-0.288,0.021-0.59,0.031-0.883,0.049c-0.474,0.028-0.943,0.059-1.429,0.076  C29.137,40.984,28.327,41,27.5,41s-1.637-0.016-2.432-0.044c-0.486-0.017-0.955-0.049-1.429-0.076  c-0.293-0.017-0.595-0.028-0.883-0.049c-0.63-0.046-1.242-0.104-1.847-0.167c-0.114-0.012-0.233-0.02-0.346-0.032  c-0.693-0.076-1.368-0.163-2.026-0.259c-0.017-0.002-0.034-0.004-0.051-0.007c-3.385-0.5-6.29-1.263-8.561-2.17  c-0.012-0.004-0.024-0.009-0.036-0.014c-0.419-0.168-0.812-0.342-1.186-0.519c-0.043-0.021-0.089-0.041-0.132-0.061  c-0.336-0.162-0.647-0.328-0.945-0.497c-0.07-0.04-0.144-0.079-0.212-0.12c-0.259-0.152-0.495-0.307-0.721-0.463  c-0.086-0.06-0.175-0.119-0.257-0.18c-0.191-0.141-0.362-0.283-0.526-0.426c-0.089-0.078-0.179-0.156-0.26-0.236  c-0.134-0.13-0.252-0.26-0.363-0.392c-0.078-0.092-0.153-0.184-0.219-0.277c-0.088-0.123-0.163-0.246-0.231-0.369  c-0.054-0.099-0.102-0.198-0.143-0.297c-0.049-0.121-0.088-0.242-0.116-0.363C4.541,33.823,4.5,33.661,4.5,33.5  c0-0.113,0.013-0.226,0.031-0.338c0.025-0.151,0.011-0.302-0.031-0.445v-7.424c0.028,0.026,0.063,0.051,0.092,0.077  c0.218,0.192,0.44,0.383,0.69,0.567C9.049,28.786,16.582,31,27.5,31c10.872,0,18.386-2.196,22.169-5.028  c0.302-0.22,0.574-0.447,0.83-0.678l0.001-0.001v7.424c-0.042,0.143-0.056,0.294-0.031,0.445c0.019,0.112,0.031,0.225,0.031,0.338  C50.5,33.661,50.459,33.823,50.421,33.985z M50.5,13.293v7.424c-0.042,0.143-0.056,0.294-0.031,0.445  c0.019,0.112,0.031,0.225,0.031,0.338c0,0.161-0.041,0.323-0.079,0.485c-0.028,0.121-0.067,0.241-0.116,0.363  c-0.04,0.099-0.089,0.198-0.143,0.297c-0.067,0.123-0.142,0.246-0.231,0.369c-0.066,0.093-0.141,0.185-0.219,0.277  c-0.111,0.131-0.229,0.262-0.363,0.392c-0.081,0.079-0.17,0.157-0.26,0.236c-0.164,0.143-0.335,0.285-0.526,0.426  c-0.082,0.061-0.17,0.12-0.257,0.18c-0.226,0.156-0.462,0.311-0.721,0.463c-0.068,0.041-0.141,0.08-0.212,0.12  c-0.298,0.168-0.609,0.335-0.945,0.497c-0.043,0.021-0.088,0.041-0.132,0.061c-0.375,0.177-0.767,0.351-1.186,0.519  c-0.012,0.005-0.024,0.009-0.036,0.014c-2.271,0.907-5.176,1.67-8.561,2.17c-0.017,0.002-0.034,0.004-0.051,0.007  c-0.658,0.097-1.333,0.183-2.026,0.259c-0.113,0.012-0.232,0.02-0.346,0.032c-0.605,0.063-1.217,0.121-1.847,0.167  c-0.288,0.021-0.59,0.031-0.883,0.049c-0.474,0.028-0.943,0.059-1.429,0.076C29.137,28.984,28.327,29,27.5,29  s-1.637-0.016-2.432-0.044c-0.486-0.017-0.955-0.049-1.429-0.076c-0.293-0.017-0.595-0.028-0.883-0.049  c-0.63-0.046-1.242-0.104-1.847-0.167c-0.114-0.012-0.233-0.02-0.346-0.032c-0.693-0.076-1.368-0.163-2.026-0.259  c-0.017-0.002-0.034-0.004-0.051-0.007c-3.385-0.5-6.29-1.263-8.561-2.17c-0.012-0.004-0.024-0.009-0.036-0.014  c-0.419-0.168-0.812-0.342-1.186-0.519c-0.043-0.021-0.089-0.041-0.132-0.061c-0.336-0.162-0.647-0.328-0.945-0.497  c-0.07-0.04-0.144-0.079-0.212-0.12c-0.259-0.152-0.495-0.307-0.721-0.463c-0.086-0.06-0.175-0.119-0.257-0.18  c-0.191-0.141-0.362-0.283-0.526-0.426c-0.089-0.078-0.179-0.156-0.26-0.236c-0.134-0.13-0.252-0.26-0.363-0.392  c-0.078-0.092-0.153-0.184-0.219-0.277c-0.088-0.123-0.163-0.246-0.231-0.369c-0.054-0.099-0.102-0.198-0.143-0.297  c-0.049-0.121-0.088-0.242-0.116-0.363C4.541,21.823,4.5,21.661,4.5,21.5c0-0.113,0.013-0.226,0.031-0.338  c0.025-0.151,0.011-0.302-0.031-0.445v-7.424c0.12,0.109,0.257,0.216,0.387,0.324c0.072,0.06,0.139,0.12,0.215,0.18  c0.3,0.236,0.624,0.469,0.975,0.696c0.073,0.047,0.155,0.093,0.231,0.14c0.294,0.183,0.605,0.362,0.932,0.538  c0.121,0.065,0.242,0.129,0.367,0.193c0.365,0.186,0.748,0.367,1.151,0.542c0.066,0.029,0.126,0.059,0.193,0.087  c0.469,0.199,0.967,0.389,1.485,0.573c0.143,0.051,0.293,0.099,0.44,0.149c0.412,0.139,0.838,0.272,1.279,0.401  c0.159,0.046,0.315,0.094,0.478,0.138c0.585,0.162,1.189,0.316,1.823,0.458c0.087,0.02,0.181,0.036,0.269,0.055  c0.559,0.122,1.139,0.235,1.735,0.341c0.202,0.036,0.407,0.07,0.613,0.104c0.567,0.093,1.151,0.178,1.75,0.256  c0.154,0.02,0.301,0.043,0.457,0.062c0.744,0.09,1.514,0.167,2.305,0.233c0.195,0.016,0.398,0.028,0.596,0.042  c0.633,0.046,1.28,0.084,1.942,0.114c0.241,0.011,0.481,0.022,0.727,0.031C25.712,18.979,26.59,19,27.5,19s1.788-0.021,2.65-0.05  c0.245-0.009,0.485-0.02,0.727-0.031c0.662-0.03,1.309-0.068,1.942-0.114c0.198-0.015,0.4-0.026,0.596-0.042  c0.791-0.065,1.561-0.143,2.305-0.233c0.156-0.019,0.303-0.042,0.457-0.062c0.599-0.078,1.182-0.163,1.75-0.256  c0.206-0.034,0.411-0.068,0.613-0.104c0.596-0.106,1.176-0.219,1.735-0.341c0.088-0.019,0.182-0.036,0.269-0.055  c0.634-0.142,1.238-0.297,1.823-0.458c0.163-0.045,0.319-0.092,0.478-0.138c0.441-0.129,0.867-0.262,1.279-0.401  c0.147-0.05,0.297-0.098,0.44-0.149c0.518-0.184,1.017-0.374,1.485-0.573c0.067-0.028,0.127-0.058,0.193-0.087  c0.403-0.176,0.786-0.356,1.151-0.542c0.125-0.064,0.247-0.128,0.367-0.193c0.327-0.175,0.638-0.354,0.932-0.538  c0.076-0.047,0.158-0.093,0.231-0.14c0.351-0.227,0.675-0.459,0.975-0.696c0.075-0.06,0.142-0.12,0.215-0.18  C50.243,13.509,50.38,13.402,50.5,13.293z M27.5,2c13.555,0,23,3.952,23,7.5s-9.445,7.5-23,7.5s-23-3.952-23-7.5S13.945,2,27.5,2z   M50.5,45.703c-0.014,0.044-0.024,0.089-0.032,0.135C49.901,49.297,40.536,53,27.5,53S5.099,49.297,4.532,45.838  c-0.008-0.045-0.019-0.089-0.032-0.131v-8.414c0.028,0.026,0.063,0.051,0.092,0.077c0.218,0.192,0.44,0.383,0.69,0.567  C9.049,40.786,16.582,43,27.5,43c10.872,0,18.386-2.196,22.169-5.028c0.302-0.22,0.574-0.447,0.83-0.678l0.001-0.001V45.703z" transform="matrix(1.0909091234207153 0 0 1.0909091234207153 70 229)" id="L1_31"/><g transform="matrix(1.034482717514038 0 0 1.034482717514038 74 54)" id="L1_32"><path d="M50.949,12.187l-1.361-1.361l-9.504-9.505c-0.001-0.001-0.001-0.001-0.001-0.001l-0.771-0.771   C38.957,0.195,38.486,0,37.985,0H8.963C7.776,0,6.5,0.916,6.5,2.926V39v16.537V56c0,0.837,0.841,1.652,1.836,1.909   c0.051,0.014,0.1,0.033,0.152,0.043C8.644,57.983,8.803,58,8.963,58h40.074c0.16,0,0.319-0.017,0.475-0.048   c0.052-0.01,0.101-0.029,0.152-0.043C50.659,57.652,51.5,56.837,51.5,56v-0.463V39V13.978C51.5,13.211,51.407,12.644,50.949,12.187   z M39.5,3.565L47.935,12H39.5V3.565z M8.963,56c-0.071,0-0.135-0.025-0.198-0.049C8.61,55.877,8.5,55.721,8.5,55.537V41h41v14.537   c0,0.184-0.11,0.34-0.265,0.414C49.172,55.975,49.108,56,49.037,56H8.963z M8.5,39V2.926C8.5,2.709,8.533,2,8.963,2h28.595   C37.525,2.126,37.5,2.256,37.5,2.391V13.78c-0.532-0.48-1.229-0.78-2-0.78c-0.553,0-1,0.448-1,1s0.447,1,1,1c0.552,0,1,0.449,1,1v4   c0,1.2,0.542,2.266,1.382,3c-0.84,0.734-1.382,1.8-1.382,3v4c0,0.551-0.448,1-1,1c-0.553,0-1,0.448-1,1s0.447,1,1,1   c1.654,0,3-1.346,3-3v-4c0-1.103,0.897-2,2-2c0.553,0,1-0.448,1-1s-0.447-1-1-1c-1.103,0-2-0.897-2-2v-4   c0-0.771-0.301-1.468-0.78-2h11.389c0.135,0,0.265-0.025,0.391-0.058c0,0.015,0.001,0.021,0.001,0.036V39H8.5z"/><path d="M25.354,51.43c-0.019,0.446-0.171,0.764-0.458,0.95s-0.673,0.28-1.155,0.28c-0.191,0-0.396-0.022-0.615-0.068   s-0.429-0.098-0.629-0.157c-0.201-0.06-0.385-0.123-0.554-0.191s-0.299-0.135-0.39-0.198l-0.697,1.107   c0.182,0.137,0.405,0.26,0.67,0.369c0.264,0.109,0.54,0.207,0.827,0.294s0.565,0.15,0.834,0.191s0.503,0.062,0.704,0.062   c0.4,0,0.791-0.039,1.169-0.116s0.713-0.214,1.005-0.41c0.291-0.196,0.523-0.456,0.697-0.779c0.173-0.323,0.26-0.723,0.26-1.196   v-7.848h-1.668V51.43z"/><path d="M34.083,49.064c-0.314-0.228-0.654-0.422-1.019-0.581c-0.365-0.159-0.702-0.323-1.012-0.492   c-0.311-0.169-0.57-0.364-0.779-0.588c-0.21-0.224-0.314-0.518-0.314-0.882c0-0.146,0.036-0.299,0.109-0.458   c0.072-0.159,0.173-0.303,0.301-0.431c0.127-0.128,0.273-0.234,0.438-0.321s0.337-0.139,0.52-0.157   c0.328-0.027,0.597-0.032,0.807-0.014c0.209,0.019,0.378,0.05,0.506,0.096c0.127,0.046,0.226,0.091,0.294,0.137   s0.13,0.082,0.185,0.109c0.009-0.009,0.036-0.055,0.082-0.137c0.045-0.082,0.1-0.185,0.164-0.308   c0.063-0.123,0.132-0.255,0.205-0.396c0.072-0.142,0.137-0.271,0.191-0.39c-0.265-0.173-0.611-0.299-1.039-0.376   c-0.429-0.077-0.853-0.116-1.271-0.116c-0.41,0-0.8,0.063-1.169,0.191s-0.692,0.313-0.971,0.554s-0.499,0.535-0.663,0.882   S29.4,46.13,29.4,46.576c0,0.492,0.104,0.902,0.314,1.23c0.209,0.328,0.474,0.613,0.793,0.854c0.318,0.241,0.66,0.451,1.025,0.629   c0.364,0.178,0.704,0.355,1.019,0.533s0.576,0.376,0.786,0.595c0.209,0.219,0.314,0.483,0.314,0.793   c0,0.511-0.148,0.896-0.444,1.155s-0.723,0.39-1.278,0.39c-0.183,0-0.379-0.019-0.588-0.055c-0.21-0.036-0.42-0.084-0.629-0.144   c-0.21-0.06-0.412-0.123-0.608-0.191s-0.358-0.139-0.485-0.212l-0.287,1.176c0.154,0.137,0.34,0.253,0.554,0.349   s0.439,0.171,0.677,0.226c0.236,0.055,0.472,0.094,0.704,0.116s0.458,0.034,0.677,0.034c0.51,0,0.966-0.077,1.367-0.232   c0.4-0.155,0.738-0.362,1.012-0.622s0.485-0.561,0.636-0.902s0.226-0.695,0.226-1.06c0-0.538-0.105-0.978-0.314-1.319   C34.659,49.577,34.397,49.292,34.083,49.064z"/><path d="M20.5,20v-4c0-0.551,0.448-1,1-1c0.553,0,1-0.448,1-1s-0.447-1-1-1c-1.654,0-3,1.346-3,3v4c0,1.103-0.897,2-2,2   c-0.553,0-1,0.448-1,1s0.447,1,1,1c1.103,0,2,0.897,2,2v4c0,1.654,1.346,3,3,3c0.553,0,1-0.448,1-1s-0.447-1-1-1   c-0.552,0-1-0.449-1-1v-4c0-1.2-0.542-2.266-1.382-3C19.958,22.266,20.5,21.2,20.5,20z"/><circle cx="28" cy="19" r="1"/><path d="M28.5,25c-0.553,0-1,0.448-1,1v3c0,0.552,0.447,1,1,1s1-0.448,1-1v-3C29.5,25.448,29.053,25,28.5,25z"/></g><path d="M284.855,237.167l-12.871,3.219l-18.938-41.662l-5.919-53.276l8.762,1.252c0.581,0.086,1.162,0.124,1.733,0.124    c5.167,0,9.857-3.295,11.533-8.324c1.143-3.433,0.71-7.171-1.195-10.248c-1.9-3.076-5.048-5.138-8.629-5.648l-10.933-1.562V23.81    c0-13.129-10.681-23.81-23.81-23.81h-200C11.46,0,0.779,10.681,0.779,23.81c0,11.495,8.195,21.114,19.048,23.329v248.1h190.286    l0.376,1.31l9.157-2.619l-8.171-28.6l2.667-0.667l61.852-15.462l2.614-0.652l8.129,24.39l9.033-3.014L284.855,237.167z     M248.117,130.624l9.871,1.41c1.062,0.147,1.629,0.828,1.872,1.223c0.243,0.395,0.6,1.21,0.262,2.229    c-0.405,1.214-1.643,1.929-2.881,1.786l-10.01-1.429L248.117,130.624z M224.588,9.523c7.876,0,14.286,6.41,14.286,14.287v84.962    l-9.524-5.557v-65.12h-4.762c-7.876,0-14.286-6.41-14.286-14.286C210.302,15.933,216.712,9.523,224.588,9.523z M175.94,125.657    l-22.933-3.276l-2.105-4.205c-0.271-0.543-0.571-1.067-0.895-1.567l22.605,3.229v0.005l62.452,8.91l3.619,0.519l-0.886,5.219    l-14.757-2.105L175.94,125.657z M185.317,142.062l-8.795,8.795l-14.843-11.133l-3.49-6.986l23.738,3.39L185.317,142.062z     M132.684,104.981l-15.333,5.114c-0.743,0.105-1.495,0.186-2.229,0.314c-0.014-0.295-0.057-0.586-0.057-0.886    c0-10.167,3.576-19.51,9.514-26.867c4.047,5.006,6.99,10.958,8.457,17.544c-0.014,0.048-0.043,0.09-0.052,0.138    C132.598,101.881,132.56,103.438,132.684,104.981z M121.392,127.104l0.738,5.924c-2.667-4.029-4.619-8.471-5.781-13.176    c0.663-0.128,1.344-0.195,2.015-0.295l3.176,3.176C121.311,124.171,121.207,125.633,121.392,127.104z M117.817,143.115    c-7.505,5.948-16.81,9.267-26.562,9.267c-2.819,0-5.571-0.29-8.238-0.814c3.176-12.949,12.166-23.568,24.257-28.858    C109.217,130.205,112.793,137.158,117.817,143.115z M105.74,113.019c-15.757,6.01-27.605,19.286-31.819,35.662    c-15.014-6.671-25.524-21.7-25.524-39.157c0-23.629,19.229-42.857,42.857-42.857c9.924,0,19.171,3.448,26.533,9.262    c-7.632,9.1-12.247,20.814-12.247,33.595C105.54,110.7,105.664,111.857,105.74,113.019z M81.774,161    c3.081,0.567,6.238,0.905,9.481,0.905c12.167,0,23.748-4.248,33.014-11.795l0.562,4.486l33.538,33.524    c-8.11,10.452-20.443,16.643-33.781,16.643c-23.629,0-42.857-19.229-42.857-42.857C81.731,161.6,81.769,161.305,81.774,161z     M131.387,75.934c7.31-5.786,16.514-9.267,26.533-9.267c11.41,0,22.09,4.643,29.948,12.352l-5.666-3.305l-40.181,14.61    c-0.614,0.224-1.152,0.581-1.724,0.881C138.192,85.567,135.154,80.424,131.387,75.934z M142.227,102.656    c0.395-1.586,1.514-2.814,3.062-3.376l35.986-13.086l53.132,30.996l0.21,1.881l-23.671-3.381l-32.371-4.624l-3.871-6.786    l-20.129,3.357l-12.062-1.724C142.051,104.913,141.942,103.78,142.227,102.656z M10.302,23.81c0-7.876,6.41-14.286,14.286-14.286    h181.076c-3.024,3.99-4.886,8.905-4.886,14.286s1.862,10.295,4.886,14.286H24.588C16.712,38.095,10.302,31.686,10.302,23.81z     M199.607,258.481l7.786,27.233H29.35V47.619h190.476v50.043l-13.467-7.857c-7.99-19.595-27.21-32.662-48.438-32.662    c-12.652,0-24.267,4.51-33.333,12.005c-9.129-7.538-20.8-12.005-33.333-12.005c-28.881,0-52.381,23.5-52.381,52.381    c0,22.219,13.933,41.205,33.5,48.805c-0.076,1.186-0.167,2.371-0.167,3.576c0,28.881,23.5,52.381,52.381,52.381    c15.905,0,30.671-7.167,40.576-19.376l3.943,3.943l32.333,27.714l9.681,29.033L199.607,258.481z M242.231,247.823l-21.848,5.462    l-10.743-32.233l-34.067-29.181l-41.7-41.7l-3.033-24.248c-0.1-0.81-0.029-1.605,0.176-2.357l0.224-0.581    c0.462-1.19,1.243-2.167,2.224-2.852c2.481-1.61,6.076-1.138,8.062,1.048c0.324,0.376,0.624,0.781,0.852,1.243l4.338,8.671    l7.443,14.89l23.252,17.438l19.776-19.776l-3.324-5.814l43.519,6.219l6.276,56.471l18.93,42.21L242.231,247.823z" transform="matrix(0.2023274451494217 0 0 0.2023274451494217 226.999996591652 -18)" id="L1_33"/></defs><g fi:class="KUsePattern"><pattern id="pattern_L1_30" width="350" height="350" patternUnits="userSpaceOnUse"><use xlink:href="#L1_30" x="-350" y="-350"/><use xlink:href="#L1_30" x="0" y="-350"/><use xlink:href="#L1_30" x="350" y="-350"/><use xlink:href="#L1_30" x="-350" y="0"/><use xlink:href="#L1_30" x="0" y="0"/><use xlink:href="#L1_30" x="350" y="0"/><use xlink:href="#L1_30" x="-350" y="350"/><use xlink:href="#L1_30" x="0" y="350"/><use xlink:href="#L1_30" x="350" y="350"/></pattern><rect x="0" y="0" width="100%" height="100%" fill="url(#pattern_L1_30)"/></g><g fi:class="KUsePattern"><pattern id="pattern_L1_31" width="350" height="350" patternUnits="userSpaceOnUse"><use xlink:href="#L1_31" x="-350" y="-350"/><use xlink:href="#L1_31" x="0" y="-350"/><use xlink:href="#L1_31" x="350" y="-350"/><use xlink:href="#L1_31" x="-350" y="0"/><use xlink:href="#L1_31" x="0" y="0"/><use xlink:href="#L1_31" x="350" y="0"/><use xlink:href="#L1_31" x="-350" y="350"/><use xlink:href="#L1_31" x="0" y="350"/><use xlink:href="#L1_31" x="350" y="350"/></pattern><rect x="0" y="0" width="100%" height="100%" fill="url(#pattern_L1_31)"/></g><g fi:class="KUsePattern"><pattern id="pattern_L1_32" width="350" height="350" patternUnits="userSpaceOnUse"><use xlink:href="#L1_32" x="-350" y="-350"/><use xlink:href="#L1_32" x="0" y="-350"/><use xlink:href="#L1_32" x="350" y="-350"/><use xlink:href="#L1_32" x="-350" y="0"/><use xlink:href="#L1_32" x="0" y="0"/><use xlink:href="#L1_32" x="350" y="0"/><use xlink:href="#L1_32" x="-350" y="350"/><use xlink:href="#L1_32" x="0" y="350"/><use xlink:href="#L1_32" x="350" y="350"/></pattern><rect x="0" y="0" width="100%" height="100%" fill="url(#pattern_L1_32)"/></g><g fi:class="KUsePattern"><pattern id="pattern_L1_33" width="350" height="350" patternUnits="userSpaceOnUse"><use xlink:href="#L1_33" x="-350" y="-350"/><use xlink:href="#L1_33" x="0" y="-350"/><use xlink:href="#L1_33" x="350" y="-350"/><use xlink:href="#L1_33" x="-350" y="0"/><use xlink:href="#L1_33" x="0" y="0"/><use xlink:href="#L1_33" x="350" y="0"/><use xlink:href="#L1_33" x="-350" y="350"/><use xlink:href="#L1_33" x="0" y="350"/><use xlink:href="#L1_33" x="350" y="350"/></pattern><rect x="0" y="0" width="100%" height="100%" fill="url(#pattern_L1_33)"/></g></svg>