<svg xmlns="http://www.w3.org/2000/svg" xmlns:xlink="http://www.w3.org/1999/xlink" xmlns:fi="http://pattern.flaticon.com/" x="0" y="0" width="800" height="800" viewBox="0 0 2153.846153846154 2153.846153846154"><rect x="0px" y="0px" width="100%" height="100%" opacity="1" fill="#ffffff"/><defs><path d="M472,146.626h-68.72v-24c0-9.146-7.414-16.56-16.56-16.56H148c-9.146,0-16.56,7.414-16.56,16.56v49.92H66.96    c-2.87-0.011-5.525,1.515-6.96,4l-32.48,56.72H8c-4.418,0-8,3.582-8,8v89.6c0,4.418,3.582,8,8,8h23.36    c4.451,23.395,27.025,38.751,50.42,34.3c17.39-3.309,30.991-16.91,34.3-34.3h23.36c1.198-0.032,2.374-0.333,3.44-0.88    c1.622,0.562,3.324,0.859,5.04,0.88h104.64c4.451,23.395,27.025,38.751,50.42,34.3c17.39-3.309,30.991-16.91,34.3-34.3h49.44    c9.146,0,16.56-7.414,16.56-16.56v-73.04h51.68c4.418,0,8-3.582,8-8s-3.582-8-8-8h-51.68v-27.36h9.04c4.418,0,8-3.582,8-8    s-3.582-8-8-8h-9.04v-27.28H472c4.418,0,8-3.582,8-8S476.418,146.626,472,146.626z M71.6,188.866h59.84v44.4H46L71.6,188.866z     M73.76,357.986c-0.027,0-0.053,0-0.08,0L73.76,357.986c-15.022,0-27.2-12.178-27.2-27.2s12.178-27.2,27.2-27.2    s27.2,12.178,27.2,27.2C100.96,345.808,88.782,357.986,73.76,357.986z M116.08,322.786c-4.451-23.395-27.025-38.751-50.42-34.3    c-17.39,3.309-30.991,16.91-34.3,34.3H16v-73.52h115.44v73.52H116.08z M295.04,357.986c-0.027,0-0.053,0-0.08,0L295.04,357.986    c-15.022,0-27.2-12.178-27.2-27.2s12.178-27.2,27.2-27.2s27.2,12.178,27.2,27.2C322.24,345.808,310.062,357.986,295.04,357.986z     M387.36,146.946h-38.24c-4.418,0-8,3.582-8,8s3.582,8,8,8h38.08v27.04h-97.84c-4.418,0-8,3.582-8,8s3.582,8,8,8h97.68v27.36H332    c-4.418,0.006-7.995,3.593-7.989,8.011c0.006,4.41,3.579,7.983,7.989,7.989h54.88v73.52h-49.52    c-4.451-23.395-27.025-38.751-50.42-34.3c-17.39,3.309-30.991,16.91-34.3,34.3l-105.12-0.48l0.56-200l239.28,0.56V146.946z" transform="matrix(0.15632057189941406 0 0 0.15632057189941406 259.4830627441406 -34.57462005341131)" id="L1_0"/><g transform="matrix(1 0 0 1 82.00000170898443 50)" id="L1_1"><path d="M41.5,49c-2.206,0-4,1.794-4,4s1.794,4,4,4s4-1.794,4-4S43.706,49,41.5,49z M41.5,55c-1.103,0-2-0.897-2-2s0.897-2,2-2   s2,0.897,2,2S42.603,55,41.5,55z"/><path d="M37.5,5h4c0.552,0,1-0.447,1-1s-0.448-1-1-1h-4c-0.552,0-1,0.447-1,1S36.948,5,37.5,5z"/><path d="M44.5,5h1c0.552,0,1-0.447,1-1s-0.448-1-1-1h-1c-0.552,0-1,0.447-1,1S43.948,5,44.5,5z"/><path d="M54.095,0H28.905C26.476,0,24.5,1.977,24.5,4.405v9.534c-5.254,2.019-9,7.104-9,13.061c0,3.258,1.128,6.253,3.002,8.634   L1.816,51.271c-0.403,0.378-0.424,1.011-0.046,1.413C1.967,52.894,2.233,53,2.5,53c0.245,0,0.491-0.09,0.684-0.271l16.663-15.615   c1.33,1.27,2.907,2.276,4.653,2.947v15.534c0,2.429,1.976,4.405,4.405,4.405h25.189c2.429,0,4.405-1.977,4.405-4.405V4.405   C58.5,1.977,56.524,0,54.095,0z M28.905,2h25.189C55.421,2,56.5,3.079,56.5,4.405V6h-30V4.405C26.5,3.079,27.579,2,28.905,2z    M17.5,27c0-5.339,3.507-9.87,8.336-11.423c0.158-0.051,0.318-0.09,0.477-0.134c0.185-0.051,0.37-0.102,0.558-0.144   c0.162-0.037,0.325-0.067,0.489-0.097c0.213-0.039,0.427-0.072,0.644-0.099c0.136-0.017,0.272-0.036,0.408-0.048   C28.771,15.022,29.133,15,29.5,15c6.617,0,12,5.383,12,12s-5.383,12-12,12c-0.367,0-0.729-0.022-1.088-0.055   c-0.136-0.013-0.272-0.031-0.408-0.048c-0.216-0.027-0.431-0.06-0.644-0.099c-0.163-0.03-0.326-0.061-0.489-0.097   c-0.188-0.042-0.373-0.093-0.558-0.144c-0.159-0.044-0.319-0.083-0.477-0.134C21.007,36.87,17.5,32.339,17.5,27z M27.8,40.886   c0.071,0.009,0.142,0.025,0.214,0.033C28.503,40.971,28.998,41,29.5,41c7.72,0,14-6.28,14-14s-6.28-14-14-14   c-0.502,0-0.997,0.029-1.486,0.081c-0.072,0.008-0.142,0.024-0.214,0.033c-0.422,0.051-0.84,0.117-1.25,0.205   c-0.017,0.004-0.033,0.005-0.05,0.008V8h30v38h-30v-5.327c0.017,0.003,0.033,0.004,0.05,0.008   C26.96,40.77,27.378,40.835,27.8,40.886z M54.095,58H28.905c-1.326,0-2.405-1.079-2.405-2.405V48h30v7.595   C56.5,56.921,55.421,58,54.095,58z"/></g><g transform="matrix(0.9710401892662048 0 0 0.9710401892662048 260.86879432201385 146.86879432201385)" id="L1_10"><path d="M55.783,8H4.217C1.892,8,0,9.892,0,12.217v35.566C0,50.108,1.892,52,4.217,52h51.566C58.108,52,60,50.108,60,47.783V12.217   C60,9.892,58.108,8,55.783,8z M58,47.783C58,49.005,57.006,50,55.783,50H4.217C2.994,50,2,49.005,2,47.783V12.217   C2,10.995,2.994,10,4.217,10h51.566C57.006,10,58,10.995,58,12.217V47.783z"/><path d="M16,37H7c-0.553,0-1,0.448-1,1s0.447,1,1,1h9c0.553,0,1-0.448,1-1S16.553,37,16,37z"/><path d="M29,37h-9c-0.553,0-1,0.448-1,1s0.447,1,1,1h9c0.553,0,1-0.448,1-1S29.553,37,29,37z"/><path d="M8,42H7c-0.553,0-1,0.448-1,1s0.447,1,1,1h1c0.553,0,1-0.448,1-1S8.553,42,8,42z"/><path d="M14,42h-2c-0.553,0-1,0.448-1,1s0.447,1,1,1h2c0.553,0,1-0.448,1-1S14.553,42,14,42z"/><path d="M19,42h-1c-0.553,0-1,0.448-1,1s0.447,1,1,1h1c0.553,0,1-0.448,1-1S19.553,42,19,42z"/><path d="M25,42h-2c-0.553,0-1,0.448-1,1s0.447,1,1,1h2c0.553,0,1-0.448,1-1S25.553,42,25,42z"/><path d="M28.29,42.29C28.109,42.48,28,42.74,28,43c0,0.26,0.109,0.52,0.29,0.71C28.479,43.89,28.74,44,29,44s0.52-0.11,0.71-0.29   C29.89,43.52,30,43.26,30,43c0-0.26-0.11-0.52-0.29-0.71C29.33,41.92,28.649,41.92,28.29,42.29z"/><path d="M48,33c-1.276,0-2.469,0.349-3.5,0.947C43.469,33.349,42.276,33,41,33c-3.859,0-7,3.14-7,7s3.141,7,7,7   c1.276,0,2.469-0.349,3.5-0.947C45.531,46.651,46.724,47,48,47c3.859,0,7-3.14,7-7S51.859,33,48,33z M46,40   c0,1.394-0.576,2.654-1.5,3.562C43.576,42.654,43,41.394,43,40s0.576-2.654,1.5-3.562C45.424,37.346,46,38.606,46,40z M36,40   c0-2.757,2.243-5,5-5c0.631,0,1.23,0.13,1.787,0.345C41.68,36.583,41,38.212,41,40s0.68,3.417,1.787,4.655   C42.23,44.87,41.631,45,41,45C38.243,45,36,42.757,36,40z M48,45c-0.631,0-1.23-0.13-1.787-0.345C47.32,43.417,48,41.788,48,40   s-0.68-3.417-1.787-4.655C46.77,35.13,47.369,35,48,35c2.757,0,5,2.243,5,5S50.757,45,48,45z"/><path d="M8.255,30h6h1.49h6C22.988,30,24,28.988,24,27.745v-8v-1.49C24,17.012,22.988,16,21.745,16h-7.49h-6   C7.012,16,6,17.012,6,18.255v9.49C6,28.988,7.012,30,8.255,30z M12,24H8v-2h4V24z M8,27.745V26h4v1.745   c0,0.087,0.016,0.17,0.026,0.255H8.255C8.114,28,8,27.886,8,27.745z M22,24h-4v-1.745C18,22.114,18.114,22,18.255,22h3.49   c0.087,0,0.17-0.016,0.255-0.026V24z M21.745,28h-3.771C17.984,27.915,18,27.832,18,27.745V26h4v1.745   C22,27.886,21.886,28,21.745,28z M21.745,18C21.886,18,22,18.114,22,18.255v1.49C22,19.886,21.886,20,21.745,20h-3.49   C17.012,20,16,21.012,16,22.255v5.49C16,27.886,15.886,28,15.745,28h-1.49C14.114,28,14,27.886,14,27.745v-9.49   C14,18.114,14.114,18,14.255,18H21.745z M8.255,18h3.771C12.016,18.085,12,18.168,12,18.255V20H8v-1.745   C8,18.114,8.114,18,8.255,18z"/></g><g transform="matrix(0.12539702653884888 0 0 0.12539702653884888 93.89836120605469 230.8983612060547)" id="L1_11"><path d="M491.729,112.971L259.261,0.745c-2.061-0.994-4.461-0.994-6.521,0L20.271,112.971c-2.592,1.251-4.239,3.876-4.239,6.754    v272.549c0,2.878,1.647,5.503,4.239,6.754l232.468,112.226c1.03,0.497,2.146,0.746,3.261,0.746s2.23-0.249,3.261-0.746    l232.468-112.226c2.592-1.251,4.239-3.876,4.239-6.754V119.726C495.968,116.846,494.32,114.223,491.729,112.971z M256,15.828    l215.217,103.897l-62.387,30.118c-0.395-0.301-0.812-0.579-1.27-0.8L193.805,45.853L256,15.828z M176.867,54.333l214.904,103.746    l-44.015,21.249L132.941,75.624L176.867,54.333z M396.799,172.307v78.546l-41.113,19.848v-78.546L396.799,172.307z     M480.968,387.568L263.5,492.55V236.658l51.873-25.042c3.73-1.801,5.294-6.284,3.493-10.015    c-1.801-3.729-6.284-5.295-10.015-3.493L256,223.623l-20.796-10.04c-3.731-1.803-8.214-0.237-10.015,3.493    c-1.801,3.73-0.237,8.214,3.493,10.015l19.818,9.567V492.55L31.032,387.566V131.674l165.6,79.945    c1.051,0.508,2.162,0.748,3.255,0.748c2.788,0,5.466-1.562,6.759-4.241c1.801-3.73,0.237-8.214-3.493-10.015l-162.37-78.386    l74.505-35.968L340.582,192.52c0.033,0.046,0.07,0.087,0.104,0.132v89.999c0,2.581,1.327,4.98,3.513,6.353    c1.214,0.762,2.599,1.147,3.988,1.147c1.112,0,2.227-0.247,3.26-0.746l56.113-27.089c2.592-1.251,4.239-3.875,4.239-6.754v-90.495    l69.169-33.392V387.568z"/><path d="M92.926,358.479L58.811,342.01c-3.732-1.803-8.214-0.237-10.015,3.493c-1.801,3.73-0.237,8.214,3.493,10.015    l34.115,16.469c1.051,0.508,2.162,0.748,3.255,0.748c2.788,0,5.466-1.562,6.759-4.241    C98.22,364.763,96.656,360.281,92.926,358.479z"/><path d="M124.323,338.042l-65.465-31.604c-3.731-1.801-8.214-0.237-10.015,3.494c-1.8,3.73-0.236,8.214,3.494,10.015    l65.465,31.604c1.051,0.507,2.162,0.748,3.255,0.748c2.788,0,5.466-1.562,6.759-4.241    C129.617,344.326,128.053,339.842,124.323,338.042z"/></g></defs><g fi:class="KUsePattern"><pattern id="pattern_L1_10" width="350" height="350" patternUnits="userSpaceOnUse"><use xlink:href="#L1_10" x="-350" y="-350"/><use xlink:href="#L1_10" x="0" y="-350"/><use xlink:href="#L1_10" x="350" y="-350"/><use xlink:href="#L1_10" x="-350" y="0"/><use xlink:href="#L1_10" x="0" y="0"/><use xlink:href="#L1_10" x="350" y="0"/><use xlink:href="#L1_10" x="-350" y="350"/><use xlink:href="#L1_10" x="0" y="350"/><use xlink:href="#L1_10" x="350" y="350"/></pattern><rect x="0" y="0" width="100%" height="100%" fill="url(#pattern_L1_10)"/></g><g fi:class="KUsePattern" opacity="1"><pattern id="pattern_L1_0" width="350" height="350" patternUnits="userSpaceOnUse"><use xlink:href="#L1_0" x="-350" y="-350"/><use xlink:href="#L1_0" x="0" y="-350"/><use xlink:href="#L1_0" x="350" y="-350"/><use xlink:href="#L1_0" x="-350" y="0"/><use xlink:href="#L1_0" x="0" y="0"/><use xlink:href="#L1_0" x="350" y="0"/><use xlink:href="#L1_0" x="-350" y="350"/><use xlink:href="#L1_0" x="0" y="350"/><use xlink:href="#L1_0" x="350" y="350"/></pattern><rect x="0" y="0" width="100%" height="100%" fill="url(#pattern_L1_0)"/></g><g fi:class="KUsePattern" opacity="1"><pattern id="pattern_L1_1" width="350" height="350" patternUnits="userSpaceOnUse"><use xlink:href="#L1_1" x="-350" y="-350"/><use xlink:href="#L1_1" x="0" y="-350"/><use xlink:href="#L1_1" x="350" y="-350"/><use xlink:href="#L1_1" x="-350" y="0"/><use xlink:href="#L1_1" x="0" y="0"/><use xlink:href="#L1_1" x="350" y="0"/><use xlink:href="#L1_1" x="-350" y="350"/><use xlink:href="#L1_1" x="0" y="350"/><use xlink:href="#L1_1" x="350" y="350"/></pattern><rect x="0" y="0" width="100%" height="100%" fill="url(#pattern_L1_1)"/></g><g fi:class="KUsePattern"><pattern id="pattern_L1_11" width="350" height="350" patternUnits="userSpaceOnUse"><use xlink:href="#L1_11" x="-350" y="-350"/><use xlink:href="#L1_11" x="0" y="-350"/><use xlink:href="#L1_11" x="350" y="-350"/><use xlink:href="#L1_11" x="-350" y="0"/><use xlink:href="#L1_11" x="0" y="0"/><use xlink:href="#L1_11" x="350" y="0"/><use xlink:href="#L1_11" x="-350" y="350"/><use xlink:href="#L1_11" x="0" y="350"/><use xlink:href="#L1_11" x="350" y="350"/></pattern><rect x="0" y="0" width="100%" height="100%" fill="url(#pattern_L1_11)"/></g></svg>